<?xml version="1.0" encoding="UTF-8"?>
<svg id="Layer_1" data-name="Layer 1" xmlns="http://www.w3.org/2000/svg" viewBox="0 0 1200 1101.2">
  <defs>
    <style>
      .cls-1 {
        fill: #4BBEDB;
        stroke-width: 0px;
      }
    </style>
  </defs>
  <path class="cls-1" d="M106.35,1094.87c-6.11,0-12.17-2-17.39-5.97-9.54-7.18-13.65-18.39-11-30l32.49-144.55c.8-3.82-.53-7.79-3.47-10.38L-4.15,806.16c-9.13-7.58-12.64-18.95-9.41-30.5.04-.12.07-.25.11-.37,2.73-8.87,10.75-18.87,25.08-20.32.03,0,.07,0,.1,0l147.66-13.97c3.77-.35,7.2-2.79,8.57-6.09.02-.06.05-.12.08-.18l58.96-136.15c5.64-13.1,17.58-17.78,26.88-17.78s21.34,4.69,26.91,17.85l58.86,135.93c1.71,3.67,4.96,6.12,8.51,6.41.07,0,.14.01.21.02l147.66,13.97s.07,0,.1,0c14.62,1.48,22.66,11.92,25.14,20.49,3.44,11.4.26,22.81-8.53,30.54l-111.3,97.97c-2.97,2.61-4.26,6.5-3.46,10.4l32.48,144.51c3.16,13.67-3.63,24.49-11.06,30.06-7.02,5.26-19.6,8.92-31.97,1.9-.08-.05-.17-.1-.25-.14l-127.51-75.59c-3.23-1.92-7.55-1.89-11.05.07l-127.39,75.52c-4.7,2.79-9.81,4.17-14.88,4.17ZM105.73,1065s0,0,0,0c0,0,0,0,0,0ZM402.33,1064.8h0ZM16.78,784.61l110.01,96.84c11.09,9.77,16.06,24.8,12.97,39.24l-.03.15-32.16,143.08,125.87-74.62c.07-.04.14-.08.21-.12,12.93-7.39,28.77-7.34,41.33.13l125.85,74.61-32.16-143.08c-.01-.06-.03-.12-.04-.18-3.06-14.45,1.91-29.47,12.97-39.21l109.95-96.79-145.92-13.8c-14.38-1.2-27.14-10.37-33.34-23.97-.04-.09-.08-.17-.12-.26l-58.31-134.64-58.27,134.56c-5.65,13.42-18.76,22.95-33.43,24.3l-145.4,13.75ZM492.43,783.74s.01.04.02.07c0-.02-.01-.04-.02-.07ZM254.61,610.32h0s0,0,0,0Z"/>
  <path class="cls-1" d="M452.41,619.18c-6.11,0-12.16-2-17.38-5.96-9.55-7.18-13.67-18.4-11.02-30.01l32.49-144.54c.8-3.82-.53-7.8-3.47-10.38l-111.12-97.81c-9.13-7.58-12.65-18.95-9.41-30.5.03-.12.07-.24.11-.37,2.73-8.87,10.75-18.87,25.09-20.32l147.76-13.98c3.77-.35,7.2-2.79,8.58-6.09.03-.06.05-.12.08-.18l58.96-136.15c5.64-13.1,17.59-17.78,26.88-17.78s21.35,4.69,26.91,17.85l58.86,135.92c1.71,3.67,4.96,6.13,8.51,6.41.07,0,.14.01.21.02l147.66,13.97c14.72,1.49,22.76,11.92,25.24,20.5,3.44,11.4.26,22.81-8.53,30.54l-111.3,97.97c-2.97,2.61-4.26,6.5-3.46,10.4l32.48,144.52c3.16,13.67-3.64,24.48-11.06,30.05-7.01,5.26-19.59,8.92-31.97,1.9-.08-.05-.17-.1-.25-.14l-127.51-75.59c-3.23-1.92-7.55-1.89-11.05.07l-127.39,75.52c-4.69,2.79-9.81,4.17-14.88,4.17ZM453.22,590.11h0ZM747.31,590.08h0s0,0,0,0ZM451.79,589.31h0s0,0,0,0ZM748.39,589.11h0,0ZM362.84,308.92l110.01,96.84c11.09,9.77,16.06,24.81,12.96,39.24l-.03.15-32.16,143.08,125.87-74.62c.07-.04.14-.08.21-.12,12.93-7.39,28.77-7.34,41.33.13l125.85,74.61-32.16-143.08c-.01-.06-.03-.12-.04-.18-3.06-14.44,1.91-29.47,12.97-39.21l109.95-96.79-145.92-13.8c-14.38-1.2-27.14-10.37-33.33-23.97-.04-.09-.08-.17-.12-.26l-58.31-134.64-58.27,134.57c-5.65,13.42-18.76,22.95-33.43,24.3l-145.4,13.75ZM838.5,308.06s0,.04.02.06c0-.02-.01-.04-.02-.06Z"/>
  <path class="cls-1" d="M798.5,1094.87c-6.11,0-12.17-2-17.39-5.97-9.54-7.18-13.65-18.39-11-30l32.49-144.54c.8-3.82-.53-7.8-3.47-10.39l-111.12-97.81c-9.13-7.58-12.65-18.95-9.41-30.5.04-.12.07-.25.11-.37,2.73-8.87,10.76-18.87,25.08-20.32.03,0,.07,0,.1,0l147.66-13.97c3.76-.35,7.2-2.79,8.57-6.09l.08-.18,58.96-136.15c5.64-13.1,17.58-17.78,26.88-17.78s21.34,4.69,26.91,17.85l58.86,135.93c1.71,3.67,4.96,6.12,8.51,6.41.07,0,.14.01.21.02l147.66,13.97s.07,0,.1,0c14.63,1.48,22.66,11.92,25.14,20.49,3.44,11.4.26,22.81-8.54,30.54l-111.3,97.97c-2.97,2.61-4.26,6.5-3.46,10.4l32.48,144.52c3.16,13.66-3.63,24.48-11.06,30.05-7.02,5.26-19.6,8.92-31.97,1.9-.08-.05-.17-.1-.25-.14l-127.51-75.59c-3.23-1.92-7.55-1.89-11.05.07l-127.39,75.52c-4.7,2.79-9.81,4.17-14.88,4.17ZM1094.48,1064.8h0ZM708.94,784.61l110.01,96.84c11.09,9.77,16.06,24.8,12.97,39.24l-.03.15-32.16,143.08,125.87-74.62c.07-.04.14-.08.21-.12,12.93-7.39,28.77-7.34,41.34.13l125.85,74.61-32.16-143.08c-.01-.06-.03-.12-.04-.18-3.06-14.44,1.91-29.47,12.97-39.21l109.95-96.79-145.92-13.8c-14.38-1.2-27.14-10.38-33.34-23.97-.04-.09-.08-.17-.12-.26l-58.31-134.64-58.28,134.57c-5.65,13.42-18.76,22.95-33.43,24.3l-145.4,13.75ZM1184.59,783.74s0,.03.01.05v-.05ZM946.77,610.32h0s0,0,0,0Z"/>
</svg>