<svg width="22" height="25" viewBox="0 0 22 25" fill="none" xmlns="http://www.w3.org/2000/svg">
<g clip-path="url(#clip0_788_387)">
<path d="M21.8066 10.3519V5.97078C16.0787 5.72947 15.8994 0.526642 15.8912 0.0375008V0H11.4694V17.0612C11.4694 18.9982 9.89926 20.5668 7.96226 20.5668C6.02526 20.5668 4.45675 18.9966 4.45675 17.0596C4.45675 15.1226 6.02689 13.5541 7.96389 13.5541C8.30955 13.5541 8.65358 13.6063 8.98619 13.7057V9.1877C4.63773 8.62356 0.656122 11.6905 0.0903486 16.0373C-0.473794 20.3858 2.59149 24.3674 6.93995 24.9332C11.2884 25.4973 15.27 22.432 15.8358 18.0835C15.8798 17.7444 15.9026 17.4036 15.9026 17.0612C15.9026 16.9504 15.8994 16.8395 15.8945 16.7303V8.32844C17.9326 10.1921 21.8066 10.3519 21.8066 10.3519Z" fill="#A7BCDD"/>
</g>
<defs>
<clipPath id="clip0_788_387">
<rect width="21.7831" height="25" fill="white" transform="translate(0.0234375)"/>
</clipPath>
</defs>
</svg>
