<svg width="26" height="25" viewBox="0 0 26 25" fill="none" xmlns="http://www.w3.org/2000/svg">
<g clip-path="url(#clip0_788_393)">
<path d="M5.73259 8.21704H0.383545V25.0001H5.73259V8.21704Z" fill="#A7BCDD"/>
<path d="M18.0049 7.79957C16.5242 8.06945 15.0201 8.74055 13.8254 10.5721V8.21698H8.83618V25H14.0791V15.6765C14.0719 14.8723 14.3292 14.0878 14.8114 13.4455C15.3727 12.6826 16.2723 12.2436 17.2187 12.267C19.8437 12.267 19.77 15.358 19.77 15.824V25H25.0201V13.6974C25.0201 8.92047 20.63 7.32098 18.0013 7.79957H18.0049Z" fill="#A7BCDD"/>
<path d="M5.18734 5.13858C6.36284 3.96307 6.36284 2.05719 5.18734 0.881687C4.01183 -0.29382 2.10595 -0.29382 0.930447 0.881687C-0.245061 2.05719 -0.245061 3.96307 0.930447 5.13858C2.10595 6.31408 4.01183 6.31408 5.18734 5.13858Z" fill="#A7BCDD"/>
</g>
<defs>
<clipPath id="clip0_788_393">
<rect width="24.9748" height="25" fill="white" transform="translate(0.0488281)"/>
</clipPath>
</defs>
</svg>
