<svg width="154" height="30" viewBox="0 0 154 30" fill="none" xmlns="http://www.w3.org/2000/svg">
<path d="M152.9 12.6263V29.6703H149.504V12.6263H152.9Z" fill="white"/>
<path d="M136.898 29.9999C135.799 29.9999 134.821 29.8021 133.963 29.4065C133.117 29.0109 132.452 28.4395 131.969 27.6922C131.485 26.945 131.244 26.0439 131.244 24.9889C131.244 23.0988 131.914 21.6867 133.255 20.7527C134.595 19.8186 136.733 19.3241 139.667 19.2692L142.469 19.1867V17.9505C142.469 16.9725 142.178 16.2032 141.595 15.6428C141.013 15.0823 140.117 14.8076 138.908 14.8186C137.996 14.8186 137.183 15.0274 136.469 15.445C135.766 15.8626 135.304 16.5494 135.084 17.5054H132.018C132.084 16.3736 132.408 15.423 132.991 14.6538C133.584 13.8736 134.398 13.2856 135.43 12.89C136.463 12.4944 137.678 12.2966 139.073 12.2966C140.623 12.2966 141.898 12.5109 142.898 12.9395C143.898 13.3571 144.639 13.9725 145.123 14.7856C145.617 15.5988 145.865 16.5878 145.865 17.7527V29.6703H142.881L142.601 26.5384C141.963 27.8461 141.156 28.7527 140.178 29.2582C139.211 29.7527 138.117 29.9999 136.898 29.9999ZM138.002 27.5439C138.54 27.5439 139.073 27.4505 139.601 27.2637C140.128 27.0659 140.606 26.8021 141.035 26.4725C141.463 26.1318 141.804 25.7527 142.057 25.3351C142.321 24.9175 142.458 24.4889 142.469 24.0494V21.2307L140.161 21.2801C138.985 21.2911 137.985 21.412 137.161 21.6428C136.348 21.8736 135.722 22.2307 135.282 22.7142C134.854 23.1977 134.639 23.8406 134.639 24.6428C134.639 25.5549 134.958 26.2692 135.595 26.7856C136.233 27.2911 137.035 27.5439 138.002 27.5439Z" fill="white"/>
<path d="M125.316 29.6704V25.4176H129.388V29.6704H125.316Z" fill="white"/>
<path d="M114.102 30C111.86 30 110.097 29.2362 108.811 27.7087C107.525 26.1703 106.882 23.956 106.882 21.0659C106.882 19.2967 107.141 17.7582 107.657 16.4505C108.174 15.1318 108.943 14.1098 109.965 13.3846C110.998 12.6593 112.272 12.2967 113.789 12.2967C114.558 12.2967 115.239 12.3901 115.833 12.5769C116.437 12.7637 116.965 13.0054 117.415 13.3022C117.877 13.5989 118.256 13.9175 118.553 14.2582C118.86 14.5989 119.097 14.9175 119.261 15.2142V5.17578H122.805V29.6703H120.168L119.772 26.1758C119.652 26.5494 119.465 26.956 119.212 27.3956C118.959 27.8351 118.613 28.2527 118.174 28.6483C117.745 29.0439 117.196 29.3681 116.525 29.6208C115.855 29.8736 115.047 30 114.102 30ZM114.778 27.3461C116.36 27.3461 117.503 26.8516 118.207 25.8626C118.91 24.8626 119.261 23.2252 119.261 20.9505C119.25 19.6648 119.091 18.5769 118.783 17.6868C118.476 16.7967 117.998 16.1263 117.349 15.6758C116.712 15.2142 115.871 14.9835 114.827 14.9835C113.52 14.9835 112.454 15.456 111.63 16.4011C110.805 17.3351 110.393 18.8516 110.393 20.9505C110.393 23.0164 110.767 24.5989 111.514 25.6978C112.272 26.7967 113.36 27.3461 114.778 27.3461Z" fill="white"/>
<path d="M93.5982 21.9725C93.5982 22.9944 93.763 23.912 94.0927 24.7252C94.4333 25.5274 94.9443 26.1648 95.6256 26.6373C96.3069 27.0988 97.1531 27.3296 98.1641 27.3296C99.1751 27.3296 100.049 27.0988 100.785 26.6373C101.532 26.1757 102.021 25.4889 102.252 24.5768H105.516C105.318 25.7417 104.851 26.7307 104.115 27.5439C103.389 28.3571 102.51 28.9725 101.477 29.39C100.444 29.7966 99.3619 29.9999 98.23 29.9999C96.6146 29.9999 95.1916 29.6538 93.9608 28.9615C92.73 28.2582 91.7685 27.2582 91.0762 25.9615C90.3949 24.6648 90.0542 23.1208 90.0542 21.3296C90.0542 19.5604 90.3674 17.9999 90.9938 16.6483C91.6201 15.2856 92.5267 14.2197 93.7135 13.4505C94.9004 12.6812 96.3289 12.2966 97.9993 12.2966C99.6476 12.2966 101.032 12.6483 102.153 13.3516C103.285 14.0549 104.142 15.0439 104.725 16.3186C105.307 17.5823 105.598 19.0768 105.598 20.8021V21.9725H93.5982ZM93.5982 19.6812H102.236C102.236 18.7911 102.082 17.9834 101.774 17.2582C101.466 16.5219 100.994 15.945 100.356 15.5274C99.73 15.0988 98.9388 14.8845 97.9828 14.8845C97.0048 14.8845 96.1916 15.1208 95.5432 15.5933C94.8949 16.0659 94.4059 16.6703 94.0762 17.4065C93.7575 18.1428 93.5982 18.901 93.5982 19.6812Z" fill="white"/>
<path d="M88.8665 15.1648H85.0423L85.0588 25.3351C85.0588 25.8956 85.1137 26.3077 85.2236 26.5714C85.3445 26.8241 85.5423 26.989 85.817 27.0659C86.1027 27.1318 86.4874 27.1648 86.9709 27.1648H88.9654V29.456C88.7456 29.5439 88.4159 29.6208 87.9764 29.6868C87.5478 29.7527 86.9929 29.7857 86.3115 29.7857C85.0478 29.7857 84.0643 29.6154 83.361 29.2747C82.6687 28.934 82.1852 28.445 81.9104 27.8077C81.6467 27.1593 81.5148 26.3791 81.5148 25.467V15.1648H78.7456V12.6263H81.6137L82.4874 7.61536H85.0423V12.6099H88.8665V15.1648Z" fill="white"/>
<path d="M68.2593 29.9999C67.1604 29.9999 66.1824 29.8021 65.3252 29.4065C64.4791 29.0109 63.8143 28.4395 63.3307 27.6922C62.8472 26.945 62.6055 26.0439 62.6055 24.9889C62.6055 23.0988 63.2758 21.6867 64.6165 20.7527C65.9571 19.8186 68.0945 19.3241 71.0285 19.2692L73.8307 19.1867V17.9505C73.8307 16.9725 73.5395 16.2032 72.9571 15.6428C72.3747 15.0823 71.4791 14.8076 70.2703 14.8186C69.3582 14.8186 68.545 15.0274 67.8307 15.445C67.1274 15.8626 66.6659 16.5494 66.4461 17.5054H63.3802C63.4461 16.3736 63.7703 15.423 64.3527 14.6538C64.9461 13.8736 65.7593 13.2856 66.7923 12.89C67.8252 12.4944 69.0395 12.2966 70.4351 12.2966C71.9846 12.2966 73.2593 12.5109 74.2593 12.9395C75.2593 13.3571 76.0011 13.9725 76.4846 14.7856C76.9791 15.5988 77.2263 16.5878 77.2263 17.7527V29.6703H74.2428L73.9626 26.5384C73.3253 27.8461 72.5176 28.7527 71.5395 29.2582C70.5725 29.7527 69.4791 29.9999 68.2593 29.9999ZM69.3637 27.5439C69.9022 27.5439 70.4351 27.4505 70.9626 27.2637C71.4901 27.0659 71.9681 26.8021 72.3967 26.4725C72.8252 26.1318 73.1659 25.7527 73.4187 25.3351C73.6824 24.9175 73.8198 24.4889 73.8307 24.0494V21.2307L71.5231 21.2801C70.3472 21.2911 69.3472 21.412 68.523 21.6428C67.7099 21.8736 67.0835 22.2307 66.6439 22.7142C66.2154 23.1977 66.0011 23.8406 66.0011 24.6428C66.0011 25.5549 66.3198 26.2692 66.9571 26.7856C67.5945 27.2911 68.3967 27.5439 69.3637 27.5439Z" fill="white"/>
<path d="M61.0633 15.1648H57.2391L57.2556 25.3351C57.2556 25.8956 57.3105 26.3077 57.4204 26.5714C57.5413 26.8241 57.7391 26.989 58.0138 27.0659C58.2995 27.1318 58.6841 27.1648 59.1677 27.1648H61.1622V29.456C60.9424 29.5439 60.6127 29.6208 60.1732 29.6868C59.7446 29.7527 59.1896 29.7857 58.5083 29.7857C57.2446 29.7857 56.2611 29.6154 55.5578 29.2747C54.8655 28.934 54.3819 28.445 54.1072 27.8077C53.8435 27.1593 53.7116 26.3791 53.7116 25.467V15.1648H50.9424V12.6263H53.8105L54.6841 7.61536H57.2391V12.6099H61.0633V15.1648Z" fill="white"/>
<path d="M43.179 29.9999C41.9922 29.9999 40.8768 29.8131 39.8329 29.4395C38.7999 29.0659 37.9318 28.4779 37.2285 27.6757C36.5362 26.8736 36.1021 25.8461 35.9263 24.5933H39.0746C39.2175 25.2417 39.4867 25.7801 39.8823 26.2087C40.2889 26.6263 40.7724 26.9395 41.3329 27.1483C41.9043 27.3461 42.5142 27.445 43.1625 27.445C44.2395 27.445 45.1076 27.2527 45.7669 26.8681C46.4373 26.4725 46.7724 25.8681 46.7724 25.0549C46.7724 24.4725 46.5911 24.0054 46.2285 23.6538C45.8768 23.3021 45.3164 23.0439 44.5471 22.879L41.1515 22.0714C39.745 21.7417 38.6186 21.2197 37.7724 20.5054C36.9263 19.7801 36.4977 18.7692 36.4867 17.4725C36.4867 16.4725 36.734 15.5823 37.2285 14.8021C37.734 14.0219 38.4812 13.412 39.4702 12.9725C40.4592 12.5219 41.69 12.2966 43.1625 12.2966C45.0856 12.2966 46.6296 12.7252 47.7944 13.5823C48.9592 14.4395 49.5636 15.6812 49.6076 17.3076H46.5581C46.4482 16.5274 46.0911 15.9175 45.4867 15.4779C44.8933 15.0274 44.1076 14.8021 43.1296 14.8021C42.1186 14.8021 41.2889 15.0054 40.6406 15.412C39.9922 15.8076 39.668 16.4175 39.668 17.2417C39.668 17.8021 39.9043 18.2472 40.3768 18.5768C40.8493 18.8955 41.5581 19.1593 42.5032 19.3681L45.734 20.1757C46.5691 20.3955 47.2559 20.6867 47.7944 21.0494C48.3329 21.401 48.7559 21.7911 49.0636 22.2197C49.3713 22.6483 49.5856 23.0933 49.7065 23.5549C49.8384 24.0164 49.9043 24.4505 49.9043 24.8571C49.9043 25.934 49.6296 26.8571 49.0801 27.6263C48.5417 28.3845 47.7669 28.9725 46.7559 29.39C45.7559 29.7966 44.5636 29.9999 43.179 29.9999Z" fill="white"/>
<path d="M22.7383 21.9725C22.7383 22.9944 22.9031 23.912 23.2328 24.7252C23.5735 25.5274 24.0844 26.1648 24.7658 26.6373C25.4471 27.0988 26.2932 27.3296 27.3042 27.3296C28.3152 27.3296 29.1888 27.0988 29.9251 26.6373C30.6724 26.1757 31.1614 25.4889 31.3921 24.5768H34.6559C34.4581 25.7417 33.991 26.7307 33.2548 27.5439C32.5295 28.3571 31.6504 28.9725 30.6174 29.39C29.5844 29.7966 28.502 29.9999 27.3702 29.9999C25.7548 29.9999 24.3317 29.6538 23.1009 28.9615C21.8702 28.2582 20.9086 27.2582 20.2163 25.9615C19.535 24.6648 19.1943 23.1208 19.1943 21.3296C19.1943 19.5604 19.5075 17.9999 20.1339 16.6483C20.7603 15.2856 21.6669 14.2197 22.8537 13.4505C24.0405 12.6812 25.4691 12.2966 27.1394 12.2966C28.7877 12.2966 30.1724 12.6483 31.2932 13.3516C32.4251 14.0549 33.2822 15.0439 33.8647 16.3186C34.4471 17.5823 34.7383 19.0768 34.7383 20.8021V21.9725H22.7383ZM22.7383 19.6812H31.3757C31.3757 18.7911 31.2218 17.9834 30.9141 17.2582C30.6064 16.5219 30.1339 15.945 29.4965 15.5274C28.8702 15.0988 28.0789 14.8845 27.1229 14.8845C26.1449 14.8845 25.3317 15.1208 24.6833 15.5933C24.035 16.0659 23.546 16.6703 23.2163 17.4065C22.8976 18.1428 22.7383 18.901 22.7383 19.6812Z" fill="white"/>
<path d="M0 29.6704V5.83521H7.92857C10.8846 5.83521 13.1099 6.36817 14.6044 7.43411C16.1099 8.50004 16.8626 10.0385 16.8626 12.0495C16.8626 13.2913 16.5385 14.3627 15.8901 15.2638C15.2527 16.1539 14.1319 16.9011 12.5275 17.5055C13.4725 17.7143 14.2637 18.0165 14.9011 18.4121C15.5385 18.7967 16.0385 19.2418 16.4011 19.7473C16.7747 20.2528 17.0385 20.8022 17.1923 21.3956C17.3571 21.9891 17.4396 22.6044 17.4396 23.2418C17.4396 25.4066 16.6758 27.022 15.1483 28.088C13.6319 29.1429 11.3187 29.6704 8.20879 29.6704H0ZM3.52747 26.8022H8.22527C10.0714 26.8022 11.4725 26.4891 12.4286 25.8627C13.3846 25.2253 13.8626 24.2748 13.8626 23.011C13.8626 22.0989 13.6264 21.3517 13.1538 20.7693C12.6813 20.1869 12.044 19.7583 11.2418 19.4836C10.4396 19.2088 9.54396 19.0715 8.55494 19.0715H3.52747V26.8022ZM3.52747 16.1539H8.55494C9.14835 16.1539 9.73077 16.0934 10.3022 15.9726C10.8736 15.8517 11.3956 15.6539 11.8681 15.3792C12.3407 15.0934 12.7198 14.7143 13.0055 14.2418C13.2912 13.7693 13.4341 13.1923 13.4341 12.511C13.4341 11.2143 12.9451 10.2528 11.967 9.62641C10.989 9.00004 9.71978 8.68685 8.15934 8.68685H3.52747V16.1539Z" fill="white"/>
<path fill-rule="evenodd" clip-rule="evenodd" d="M150.733 0.000173993C152.019 2.38544 152.484 2.89672 150.795 5.6538C150.253 6.52118 150.222 7.55902 150.609 8.19392C151.647 9.9442 154.993 7.86851 152.793 5.34384C153.506 5.8548 153.986 6.69115 153.986 7.63602C153.986 9.18481 152.716 10.4396 151.167 10.4396C149.68 10.4396 148.456 9.27772 148.363 7.80635C148.193 4.8323 151.461 3.02043 150.733 0L150.733 0.000173993Z" fill="white"/>
</svg>
