<svg width="40" height="41" viewBox="0 0 40 41" fill="none" xmlns="http://www.w3.org/2000/svg">
<circle cx="20" cy="20.5195" r="20" fill="#4BBEDB"/>
<path d="M13.0114 30.5195V28.6995V27.7615C13.0114 26.7255 13.2027 25.8342 13.5854 25.0875C13.968 24.3315 14.4767 23.6735 15.1114 23.1135C15.746 22.5535 16.4414 22.0589 17.1974 21.6295C17.9627 21.1909 18.7187 20.7802 19.4654 20.3975C20.2214 20.0055 20.9167 19.6042 21.5514 19.1935C22.186 18.7735 22.6947 18.3069 23.0774 17.7935C23.4694 17.2802 23.6654 16.6689 23.6654 15.9595C23.6654 15.0542 23.3434 14.3169 22.6994 13.7475C22.0647 13.1689 21.2014 12.8795 20.1094 12.8795C18.952 12.8795 17.9954 13.2109 17.2394 13.8735C16.4927 14.5362 16.0494 15.4695 15.9094 16.6735H12.6054C12.624 15.4415 12.918 14.3215 13.4874 13.3135C14.0567 12.3055 14.9014 11.5029 16.0214 10.9055C17.1414 10.2989 18.5367 9.99553 20.2074 9.99553C21.654 9.99553 22.9 10.2475 23.9454 10.7515C25 11.2462 25.812 11.9415 26.3814 12.8375C26.96 13.7242 27.2494 14.7602 27.2494 15.9455C27.2494 16.9815 27.058 17.8682 26.6754 18.6055C26.302 19.3429 25.8027 19.9822 25.1774 20.5235C24.5614 21.0555 23.88 21.5269 23.1334 21.9375C22.396 22.3482 21.654 22.7355 20.9074 23.0995C20.17 23.4542 19.4887 23.8275 18.8634 24.2195C18.2474 24.6022 17.748 25.0409 17.3654 25.5355C16.992 26.0302 16.8054 26.6229 16.8054 27.3135V27.6075H27.2914V30.5195H13.0114Z" fill="white"/>
</svg>
