<?xml version="1.0" encoding="UTF-8"?>
<svg id="Layer_1" data-name="Layer 1" xmlns="http://www.w3.org/2000/svg" viewBox="0 0 1200 1101.2">
  <defs>
    <style>
      .cls-1 {
        fill: #4BBEDB;
      }

      .cls-1, .cls-2 {
        stroke-width: 0px;
      }

      .cls-2 {
        fill: #4BBEDB;
      }
    </style>
  </defs>
  <g>
    <g>
      <path class="cls-1" d="M516.73,294.44v-16.12c0-19.64-15.94-35.58-35.51-35.58h-33.02c-19.64,0-35.47,15.94-35.47,35.47v16.12c-190.05,25.83-337.02,190.73-337.02,389.91,0,216.89,174.49,393.46,389.01,393.46s389.01-176.57,389.01-393.46c0-199.17-146.95-364.07-337.02-389.79h0ZM431.34,278.21c0-9.38,7.6-16.97,16.97-16.97h33.02c9.38,0,16.97,7.6,16.97,16.97v14.05c-11.01-.96-22.09-1.52-33.39-1.52s-22.39.56-33.39,1.52v-14.05h-.19ZM464.74,1059.09c-204.29,0-370.52-168.22-370.52-374.89s166.15-374.89,370.52-374.89,370.52,168.12,370.52,374.89-166.23,374.89-370.52,374.89Z"/>
      <path class="cls-2" d="M464.73,1080.7c-216.16,0-392.01-177.85-392.01-396.46,0-96.48,34.8-189.5,97.98-261.93,62.03-71.11,146.83-117.41,239.04-130.59v-13.51c0-21.21,17.26-38.47,38.47-38.47h33.02c21.23,0,38.51,17.31,38.51,38.58v13.52c92.2,13.12,177,59.39,239.03,130.49,63.18,72.41,97.97,165.43,97.97,261.91,0,218.61-175.86,396.46-392.01,396.46ZM448.21,245.74c-17.9,0-32.47,14.57-32.47,32.47v18.74l-2.6.35c-190.65,25.91-334.42,192.26-334.42,386.93,0,215.3,173.16,390.46,386.01,390.46s386.01-175.16,386.01-390.46c0-194.72-143.77-361.01-334.42-386.81l-7.08-.96,4.49-3.49v-14.66c0-17.96-14.58-32.58-32.51-32.58h-33.02ZM464.73,1062.08c-205.96,0-373.52-169.52-373.52-377.89s167.56-377.89,373.52-377.89,373.52,169.52,373.52,377.89-167.56,377.89-373.52,377.89ZM464.73,312.3c-202.65,0-367.52,166.83-367.52,371.89s164.87,371.89,367.52,371.89,367.52-166.83,367.52-371.89-164.87-371.89-367.52-371.89ZM501.32,295.53l-3.26-.29c-11.6-1.01-22.44-1.51-33.13-1.51s-21.53.49-33.13,1.51l-3.26.29v-14.32h-.19v-3c0-11.01,8.96-19.97,19.97-19.97h33.02c11.01,0,19.97,8.96,19.97,19.97v17.32ZM464.92,287.73c9.86,0,19.83.41,30.39,1.26v-10.79c0-7.71-6.27-13.97-13.97-13.97h-33.02c-6.93,0-12.7,5.07-13.79,11.69v13.07c10.56-.85,20.53-1.26,30.39-1.26Z"/>
    </g>
    <g>
      <path class="cls-1" d="M464.74,338.77c-188.35,0-341.57,155.04-341.57,345.46s153.33,345.35,341.57,345.35,341.57-154.92,341.57-345.35-153.22-345.46-341.57-345.46h0ZM464.74,1011.08c-178.09,0-323.08-146.58-323.08-326.86s144.99-326.9,323.08-326.9,323.08,146.69,323.08,326.97-144.99,326.78-323.08,326.78h0Z"/>
      <path class="cls-2" d="M464.74,1032.58c-190,0-344.57-156.27-344.57-348.35s154.57-348.46,344.57-348.46,344.57,156.32,344.57,348.46-154.57,348.35-344.57,348.35ZM464.74,341.77c-186.69,0-338.57,153.63-338.57,342.46s151.88,342.35,338.57,342.35,338.57-153.58,338.57-342.35-151.88-342.46-338.57-342.46ZM464.74,1014.08c-179.8,0-326.08-147.97-326.08-329.86s146.28-329.9,326.08-329.9,326.08,148.02,326.08,329.97-144.65,328.13-323.08,329.76h0s-3,.02-3,.02ZM462.5,1008.08h2.24c176.49,0,320.08-145.25,320.08-323.78s-143.59-323.97-320.08-323.97-320.08,145.3-320.08,323.9,142.37,322.63,317.84,323.85Z"/>
    </g>
    <g>
      <path class="cls-1" d="M464.26,468.74h.96c15.27,0,27.8-12.42,27.8-27.8v-31.99c0-15.38-12.53-27.8-28.76-27.8-15.27,0-27.8,12.42-27.8,27.8v31.99c0,15.38,12.53,27.8,27.8,27.8h0ZM455.07,408.89c0-5.11,4.19-9.3,10.16-9.3,5.11,0,9.3,4.19,9.3,9.3v31.99c0,5.11-4.19,9.3-9.3,9.3h-.96c-5.11,0-9.3-4.19-9.3-9.3v-31.99h.11Z"/>
      <path class="cls-2" d="M465.22,471.75h-.96c-16.98,0-30.8-13.82-30.8-30.8v-31.99c0-16.98,13.82-30.8,30.8-30.8s31.76,13.53,31.76,30.8v31.99c0,16.98-13.82,30.8-30.8,30.8ZM464.26,384.17c-13.67,0-24.8,11.12-24.8,24.8v31.99c0,13.67,11.12,24.8,24.8,24.8h.96c13.67,0,24.8-11.12,24.8-24.8v-31.99c0-13.91-11.32-24.8-25.76-24.8ZM465.22,453.18h-.96c-6.78,0-12.3-5.52-12.3-12.3v-34.98h.49c1.4-5.4,6.51-9.3,12.78-9.3,6.78,0,12.3,5.52,12.3,12.3v31.98c0,6.78-5.52,12.3-12.3,12.3ZM457.95,411.89v28.98c0,3.48,2.83,6.3,6.3,6.3h.96c3.48,0,6.3-2.83,6.3-6.3v-31.98c0-3.48-2.83-6.3-6.3-6.3-4.15,0-7.16,2.65-7.16,6.3v3h-.11Z"/>
    </g>
    <g>
      <path class="cls-1" d="M464.26,899.68c-15.27,0-27.8,12.53-27.8,27.8v32.06c0,15.27,12.53,27.8,27.8,27.8h.96c15.27,0,27.8-12.53,27.8-27.8v-32.06c0-15.27-12.53-27.8-28.76-27.8h0ZM474.41,959.57c0,5.11-4.19,9.3-9.3,9.3h-.96c-5.11,0-9.3-4.19-9.3-9.3v-32.06c0-5.11,4.19-9.3,10.16-9.3,5.11,0,9.3,4.19,9.3,9.3l.04,32.06h.07Z"/>
      <path class="cls-2" d="M465.22,990.33h-.96c-16.98,0-30.8-13.82-30.8-30.8v-32.06c0-16.98,13.82-30.8,30.8-30.8s31.76,13.53,31.76,30.8v32.06c0,16.98-13.82,30.8-30.8,30.8ZM464.26,902.68c-13.67,0-24.8,11.12-24.8,24.8v32.06c0,13.67,11.12,24.8,24.8,24.8h.96c13.67,0,24.8-11.12,24.8-24.8v-32.06c0-13.9-11.32-24.8-25.76-24.8ZM465.11,971.87h-.96c-6.78,0-12.3-5.52-12.3-12.3v-32.06c0-6.9,5.78-12.3,13.16-12.3,6.78,0,12.3,5.52,12.3,12.3l.04,29.06.08,3c0,6.78-5.52,12.3-12.3,12.3ZM465,921.21c-4.15,0-7.16,2.65-7.16,6.3v32.06c0,3.48,2.83,6.3,6.3,6.3h.96c3.15,0,5.76-2.32,6.23-5.33l-.04-33.02c0-3.48-2.83-6.31-6.3-6.31Z"/>
    </g>
    <g>
      <path class="cls-1" d="M736.78,655.76h-31.32c-15.38,0-27.8,12.42-27.8,27.8v1.33c0,15.27,12.42,27.8,27.8,27.8h31.32c15.27,0,27.8-12.53,27.8-27.8v-1.33c0-15.38-12.53-27.8-27.8-27.8ZM746.05,684.89c0,5.11-4.19,9.3-9.3,9.3h-31.32c-5.23,0-9.3-4.19-9.3-9.3v-1.33c0-5.11,4.08-9.3,9.3-9.3h31.32c5.11,0,9.3,4.19,9.3,9.3v1.33Z"/>
      <path class="cls-2" d="M736.78,715.69h-31.32c-16.98,0-30.8-13.82-30.8-30.8v-1.33c0-16.98,13.82-30.8,30.8-30.8h31.32c16.98,0,30.8,13.82,30.8,30.8v1.33c0,16.98-13.82,30.8-30.8,30.8ZM705.46,658.76c-13.67,0-24.8,11.12-24.8,24.8v1.33c0,13.67,11.12,24.8,24.8,24.8h31.32c13.67,0,24.8-11.12,24.8-24.8v-1.33c0-13.67-11.12-24.8-24.8-24.8h-31.32ZM736.74,697.2h-31.32c-6.78,0-12.3-5.52-12.3-12.3v-1.33c0-6.78,5.52-12.3,12.3-12.3h31.32c6.78,0,12.3,5.52,12.3,12.3v1.33c0,6.78-5.52,12.3-12.3,12.3ZM705.42,677.26c-3.53,0-6.3,2.77-6.3,6.3v1.33c0,3.54,2.77,6.3,6.3,6.3h31.32c3.48,0,6.3-2.83,6.3-6.3v-1.33c0-3.48-2.83-6.3-6.3-6.3h-31.32Z"/>
    </g>
    <g>
      <path class="cls-1" d="M251.92,683.56c0-15.38-12.53-27.8-27.8-27.8h-31.39c-15.27,0-27.8,12.42-27.8,27.8v1.33c0,15.27,12.53,27.8,27.8,27.8h31.39c15.27,0,27.8-12.53,27.8-27.8v-1.33ZM233.32,684.9c0,5.11-4.19,9.3-9.3,9.3h-31.39c-5.11,0-9.3-4.19-9.3-9.3v-1.33c0-5.11,4.19-9.3,9.3-9.3h31.39c5.11,0,9.3,4.19,9.3,9.3v1.33Z"/>
      <path class="cls-2" d="M224.13,715.69h-31.39c-16.98,0-30.8-13.82-30.8-30.8v-1.33c0-16.98,13.82-30.8,30.8-30.8h31.39c16.98,0,30.8,13.82,30.8,30.8v1.33c0,16.98-13.82,30.8-30.8,30.8ZM192.73,658.77c-13.67,0-24.8,11.12-24.8,24.8v1.33c0,13.67,11.12,24.8,24.8,24.8h31.39c13.67,0,24.8-11.12,24.8-24.8v-1.33c0-13.67-11.12-24.8-24.8-24.8h-31.39ZM224.01,697.2h-31.39c-6.78,0-12.3-5.52-12.3-12.3v-1.33c0-6.78,5.52-12.3,12.3-12.3h31.39c6.78,0,12.3,5.52,12.3,12.3v1.33c0,6.78-5.52,12.3-12.3,12.3ZM192.62,677.26c-3.48,0-6.3,2.83-6.3,6.3v1.33c0,3.48,2.83,6.3,6.3,6.3h31.39c3.48,0,6.3-2.83,6.3-6.3v-1.33c0-3.48-2.83-6.3-6.3-6.3h-31.39Z"/>
    </g>
    <g>
      <path class="cls-1" d="M635.23,540.21c7.6,0,14.6-2.93,20.01-8.34l21.46-21.72c10.9-11.12,10.9-29.13,0-40.21-10.64-10.71-29.32-10.71-40.03,0l-21.46,21.83c-10.9,11.01-10.9,29.13,0,40.14,5.41,5.26,12.45,8.3,20.01,8.3h0ZM628.41,504.63l21.46-21.72c1.89-1.89,4.26-2.85,6.82-2.85s5.04,1.04,6.82,2.85c3.78,3.89,3.78,10.23,0,14.12l-21.46,21.72c-3.71,3.71-10.04,3.71-13.68,0-3.85-3.89-3.85-10.23.04-14.12h0Z"/>
      <path class="cls-2" d="M635.23,543.21c-8.19,0-16.04-3.25-22.11-9.15-12.15-12.27-12.15-32.17-.04-44.4l21.45-21.82c5.68-5.68,13.76-8.93,22.18-8.93h.06c8.4.01,16.44,3.27,22.06,8.92,12.03,12.24,12.03,32.16.01,44.43l-21.47,21.73c-5.96,5.96-13.82,9.23-22.15,9.23ZM656.72,464.9c-6.84,0-13.37,2.61-17.92,7.15l-21.44,21.81c-9.81,9.91-9.81,26.02,0,35.93,4.9,4.77,11.27,7.41,17.88,7.41h0c6.83,0,13.01-2.58,17.89-7.46l21.45-21.71c9.74-9.94,9.74-26.09,0-36-4.49-4.52-10.98-7.12-17.8-7.14h-.05ZM635.19,524.53h-.07c-3.42-.02-6.58-1.32-8.89-3.68-5.01-5.06-4.99-13.29.05-18.34l21.45-21.71c2.45-2.45,5.55-3.75,8.95-3.75s6.62,1.37,8.96,3.75c4.91,5.06,4.91,13.27,0,18.31l-21.48,21.74c-2.34,2.34-5.61,3.67-9,3.67ZM656.69,483.05c-1.81,0-3.39.66-4.7,1.97l-21.46,21.72c-2.72,2.72-2.73,7.16-.03,9.89,1.17,1.2,2.86,1.88,4.64,1.89h.04c1.81,0,3.54-.69,4.75-1.9l21.45-21.71c2.64-2.72,2.64-7.18-.02-9.92-1.21-1.23-2.91-1.94-4.67-1.94Z"/>
    </g>
    <g>
      <path class="cls-1" d="M294.25,828.26c-7.6,0-14.6,2.93-20.01,8.45l-21.46,21.72c-10.9,11.01-10.9,29.13,0,40.14,5.41,5.49,12.42,8.45,20.01,8.45s14.6-2.93,20.01-8.45l21.46-21.72c10.9-11.01,10.9-29.13,0-40.21-5.41-5.45-12.45-8.38-20.01-8.38h0ZM301.07,863.73l-21.46,21.83c-1.89,1.89-4.26,2.85-6.82,2.85s-5.04-1.04-6.82-2.85c-2-2-2.85-4.56-2.85-7.12s.96-5.11,2.85-7l21.46-21.72c1.89-1.89,4.26-2.85,6.82-2.85s5.04,1.04,6.82,2.85c3.78,3.85,3.78,10.12,0,14.01h0Z"/>
      <path class="cls-2" d="M272.79,910.02c-8.34,0-16.2-3.32-22.15-9.34-12.1-12.23-12.1-32.13,0-44.36l21.46-21.72c5.9-6.02,13.77-9.34,22.15-9.34h0c8.35,0,16.21,3.29,22.14,9.26,12.09,12.3,12.09,32.23,0,44.44l-21.46,21.72c-5.9,6.02-13.77,9.34-22.15,9.34ZM294.25,831.26c-6.85,0-13.03,2.61-17.87,7.55l-21.47,21.73c-9.8,9.9-9.8,26.02,0,35.92,4.88,4.95,11.06,7.56,17.88,7.56s13.03-2.61,17.87-7.55l21.47-21.73c9.79-9.89,9.79-26.04,0-36-4.79-4.82-11.14-7.48-17.88-7.48h0ZM272.79,891.41c-3.36,0-6.62-1.37-8.96-3.75-2.39-2.39-3.71-5.67-3.71-9.22s1.36-6.75,3.73-9.13l21.45-21.71c2.46-2.46,5.55-3.75,8.95-3.75s6.62,1.37,8.96,3.75c4.9,5,4.9,13.16,0,18.2h-.01s-21.46,21.84-21.46,21.84c-2.46,2.46-5.55,3.75-8.96,3.75ZM294.25,849.86c-1.81,0-3.39.67-4.7,1.98l-21.45,21.71c-1.25,1.25-1.99,3.08-1.99,4.9,0,1.38.34,3.36,1.98,5,1.24,1.26,2.94,1.97,4.7,1.97s3.39-.67,4.7-1.98l21.43-21.8c2.64-2.72,2.64-7.12,0-9.81-1.22-1.24-2.92-1.95-4.68-1.95Z"/>
    </g>
    <g>
      <path class="cls-1" d="M292.73,469.89c-10.64-10.71-29.32-10.71-40.03,0-10.9,11.12-10.9,29.13,0,40.21l21.46,21.72c5.41,5.41,12.42,8.34,20.01,8.34s14.6-2.93,20.01-8.34c10.9-11.01,10.9-29.13,0-40.14l-21.46-21.79ZM301.07,518.74c-1.89,1.89-4.26,2.85-6.82,2.85s-5.04-1.04-6.82-2.85l-21.46-21.72c-3.78-3.89-3.78-10.23,0-14.12,1.89-1.89,4.26-2.85,6.82-2.85s5.04,1.04,6.82,2.85l21.46,21.72c3.78,3.89,3.78,10.23,0,14.12Z"/>
      <path class="cls-2" d="M294.17,543.16c-8.33,0-16.19-3.27-22.13-9.22l-21.47-21.73c-12.03-12.23-12.03-32.16,0-44.42,5.69-5.69,13.76-8.93,22.18-8.93h.06c8.4.01,16.44,3.27,22.06,8.92h0s21.46,21.8,21.46,21.8c12.1,12.22,12.1,32.12,0,44.35-5.95,5.96-13.82,9.23-22.15,9.23ZM272.74,464.86c-6.84,0-13.37,2.61-17.92,7.16-9.73,9.92-9.73,26.08.02,35.99l21.46,21.71c4.87,4.87,11.05,7.45,17.88,7.45s13.01-2.58,17.89-7.46c9.79-9.89,9.79-26-.01-35.91l-21.46-21.79c-4.5-4.53-10.99-7.13-17.81-7.14h-.05ZM294.25,524.59c-3.36,0-6.62-1.37-8.96-3.75l-21.45-21.71c-4.92-5.06-4.92-13.27-.02-18.32,2.47-2.47,5.56-3.76,8.97-3.76s6.63,1.37,8.96,3.75l21.45,21.71c4.92,5.06,4.92,13.27.02,18.32l-.03.03c-2.44,2.44-5.53,3.73-8.94,3.73ZM272.79,483.05c-1.81,0-3.39.66-4.7,1.97-2.63,2.71-2.63,7.17.03,9.91l21.44,21.7c1.22,1.25,2.93,1.96,4.69,1.96s3.38-.66,4.68-1.96c2.65-2.74,2.64-7.19-.02-9.93l-21.44-21.7c-1.22-1.25-2.93-1.96-4.69-1.96Z"/>
    </g>
    <g>
      <path class="cls-1" d="M655.25,836.6c-10.64-10.71-29.32-10.71-40.03,0-10.9,11.12-10.9,29.21,0,40.21l21.46,21.72c5.41,5.49,12.42,8.45,20.01,8.45s14.6-2.93,20.01-8.45c5.49-5.49,8.26-12.82,8.26-20.13s-2.74-14.53-8.26-20.01l-21.46-21.79ZM663.62,885.56c-3.71,3.6-9.97,3.6-13.68,0l-21.46-21.83c-3.89-3.89-3.89-10.23,0-14.12,1.89-1.89,4.26-2.85,6.82-2.85s5.04,1.04,6.82,2.85l21.46,21.72c3.82,3.89,3.82,10.34.04,14.23h0Z"/>
      <path class="cls-2" d="M656.69,909.98c-8.34,0-16.21-3.32-22.15-9.34l-21.46-21.72c-12.06-12.19-12.07-32.12,0-44.42,5.69-5.69,13.76-8.93,22.18-8.93h.06c8.4.01,16.44,3.27,22.06,8.92h0s21.46,21.8,21.46,21.8c5.88,5.84,9.13,13.7,9.13,22.12s-3.33,16.43-9.14,22.25c-5.89,6.01-13.75,9.33-22.13,9.33ZM635.26,831.56c-6.84,0-13.37,2.61-17.92,7.16-9.76,9.96-9.76,26.11.01,35.98l21.46,21.72c4.88,4.95,11.06,7.56,17.88,7.56s13.03-2.61,17.87-7.55c4.72-4.72,7.41-11.28,7.41-18.03s-2.62-13.16-7.38-17.88l-21.48-21.81c-4.5-4.53-10.99-7.13-17.81-7.14h-.05ZM656.78,891.23c-3.25,0-6.51-1.17-8.93-3.52l-21.51-21.88c-2.43-2.43-3.78-5.69-3.78-9.16s1.35-6.73,3.8-9.18c2.44-2.44,5.53-3.73,8.94-3.73s6.62,1.37,8.96,3.75l21.45,21.71c4.98,5.08,5,13.34.06,18.43l-.06.06c-2.42,2.35-5.67,3.52-8.93,3.52ZM635.31,849.75c-1.81,0-3.39.67-4.7,1.98-1.32,1.32-2.04,3.07-2.04,4.94s.72,3.62,2.04,4.94l21.48,21.85c2.47,2.39,6.88,2.4,9.42-.02,2.62-2.73,2.59-7.3-.06-10.01l-21.45-21.71c-1.23-1.25-2.93-1.96-4.69-1.96Z"/>
    </g>
    <g>
      <path class="cls-1" d="M579.16,655.76h-82.91c-1.04-1.22-2.08-2.26-3.22-3.34v-112.89c0-15.38-12.53-27.8-27.8-27.8h-.96c-15.27,0-27.8,12.42-27.8,27.8v112.89c-8.75,7.86-14.23,19.09-14.23,31.8,0,23.61,19.09,42.88,42.51,42.88,12.6,0,23.72-5.71,31.5-14.42h82.91c15.27,0,27.8-12.53,27.8-27.8v-1.33c-.07-15.38-12.49-27.8-27.8-27.8h0ZM455.07,539.53c0-5.11,4.19-9.3,9.3-9.3h.96c5.11,0,9.3,4.19,9.3,9.3v103.03c-3.11-.74-6.37-1.33-9.67-1.33s-6.56.56-9.67,1.33l-.04-103.03h-.19ZM464.74,708.51c-13.27,0-24.02-10.82-24.02-24.28s10.71-24.39,24.02-24.39,24.02,10.9,24.02,24.39-10.75,24.28-24.02,24.28ZM588.38,684.9c0,5.11-4.19,9.3-9.3,9.3h-73.16c.74-3.22,1.33-6.45,1.33-9.97s-.56-6.75-1.33-9.97h73.16c5.11,0,9.3,4.19,9.3,9.3v1.33Z"/>
      <path class="cls-2" d="M464.75,730.11c-25.1,0-45.51-20.58-45.51-45.88,0-12.67,5.04-24.38,14.23-33.11v-111.58c0-16.98,13.82-30.8,30.8-30.8h.96c16.98,0,30.8,13.82,30.8,30.8v111.61c.57.56,1.09,1.09,1.58,1.62h81.56c16.9,0,30.72,13.81,30.8,30.78v1.35c0,16.98-13.82,30.8-30.8,30.8h-81.59c-8.78,9.31-20.39,14.42-32.82,14.42ZM464.26,514.74c-13.67,0-24.8,11.12-24.8,24.8v114.23l-1,.89c-8.54,7.67-13.24,18.17-13.24,29.57,0,21.99,17.72,39.88,39.51,39.88,11.14,0,21.54-4.76,29.27-13.42l.89-1h84.25c13.67,0,24.8-11.12,24.8-24.8v-1.33c-.07-13.67-11.19-24.8-24.8-24.8h0s-84.3,0-84.3,0l-.9-1.06c-.85-1-1.74-1.92-2.99-3.08l-.95-.89v-114.2c0-13.67-11.12-24.8-24.8-24.8h-.96ZM464.74,711.51c-14.9,0-27.02-12.24-27.02-27.28s12.12-27.39,27.02-27.39,27.02,12.29,27.02,27.39-12.12,27.28-27.02,27.28ZM464.74,662.85c-11.59,0-21.02,9.59-21.02,21.39s9.43,21.28,21.02,21.28,21.02-9.54,21.02-21.28-9.43-21.39-21.02-21.39ZM579.08,697.2h-76.93l.84-3.67c.65-2.84,1.26-5.93,1.26-9.3,0-2.79-.4-5.73-1.25-9.27l-.89-3.7h76.97c6.78,0,12.3,5.52,12.3,12.3v1.33c0,6.78-5.52,12.3-12.3,12.3ZM509.6,691.2h69.48c3.48,0,6.3-2.83,6.3-6.3v-1.33c0-3.48-2.83-6.3-6.3-6.3h-69.47c.43,2.48.64,4.75.64,6.97,0,2.5-.27,4.81-.65,6.97ZM452.29,646.41l-.04-103.87h-.19v-3c0-6.78,5.52-12.3,12.3-12.3h.96c6.78,0,12.3,5.52,12.3,12.3v106.83l-3.69-.88c-3.64-.87-6.41-1.25-8.98-1.25-2.71,0-5.55.4-8.95,1.24l-3.73.93ZM464.97,638.23c2.36,0,4.63.27,6.67.64v-99.33c0-3.48-2.83-6.3-6.3-6.3h-.96c-2.95,0-5.43,2.04-6.12,4.78l.04,100.84c2.36-.42,4.54-.62,6.67-.62Z"/>
    </g>
  </g>
  <path class="cls-2" d="M930.05,720.51c-2.64,0-5.27-.41-7.81-1.2-11.57-3.6-18.9-14.59-17.8-26.71.02-.21.04-.43.08-.64l34.56-236.91-58,33.93c-1.84,1.08-3.93,1.64-6.06,1.64-11.96,0-22.7-6.17-28.72-16.5-6.02-10.32-6.11-22.69-.24-33.09l183.65-320c5.94-10.5,18.22-15.34,29.81-11.74,11.61,3.61,18.94,14.6,17.83,26.73-.02.23-.05.46-.08.69l-35.3,234.84,56.01-25.81c1.58-.73,3.29-1.1,5.02-1.1,11.93,0,22.66,6.15,28.7,16.44,0,0,.01.02.02.03,6.01,10.31,6.1,22.68.25,33.08-.02.03-.04.06-.05.09l-179.84,313.3c-4.55,8.07-12.81,12.93-22.04,12.93ZM928.34,694.98c-.02.77.29,1.18,1.08,1.42.23.07.45.11.64.11.34,0,.78-.09,1.18-.8l179.85-313.32c1.64-2.94,1.61-6.29-.09-9.2h0c-1.34-2.26-3.41-3.77-5.86-4.32l-59.67,27.5c-1.58.73-3.29,1.1-5.02,1.1-6.54,0-12.57-2.67-16.98-7.51-4.39-4.82-6.48-11.06-5.88-17.57.02-.23.05-.45.08-.68l35.79-238.1c.01-.75-.31-1.17-1.08-1.41-.86-.27-1.39-.06-1.83.71l-183.64,319.98c-1.61,2.86-1.59,6.22.12,9.14,1.24,2.12,3.12,3.58,5.35,4.22l62.28-36.44c1.84-1.08,3.93-1.64,6.06-1.64,6.54,0,12.57,2.67,16.97,7.5,4.38,4.76,6.48,11.01,5.88,17.56-.02.21-.04.43-.08.64l-35.17,241.1Z"/>
</svg>