<?xml version="1.0" encoding="UTF-8"?>
<svg id="Layer_1" data-name="Layer 1" xmlns="http://www.w3.org/2000/svg" viewBox="0 0 1200 1101.2">
  <defs>
    <style>
      .cls-1 {
        fill: #4BBEDB;
        stroke-width: 0px;
      }
    </style>
  </defs>
  <path class="cls-1" d="M614.11,879.94h-252.6c-88.96,0-161.33-72.37-161.33-161.33s72.37-161.26,161.33-161.26h252.6c9.39,0,17-7.61,17-17v-165.95c0-9.39-7.61-17-17-17h-252.6C162.3,357.41.24,519.44.24,718.61c0,96.11,37.69,186.74,106.12,255.17,68.43,68.43,159.06,106.12,255.17,106.12h252.6c9.39,0,17-7.61,17-17v-165.95c0-9.39-7.61-17-17-17l-.02-.02ZM597.11,523.34h-110.61v-131.95h110.61v131.95ZM34.23,718.59c0-180.42,146.81-327.22,327.27-327.22h90.99v131.95h-90.99c-51.81,0-100.77,20.4-137.83,57.46-37.07,37.06-57.5,85.99-57.5,137.81s20.41,100.76,57.5,137.84c37.07,37.07,86.03,57.5,137.84,57.5h90.99v131.95h-90.99c-180.46,0-327.27-146.81-327.27-327.27h-.01ZM597.11,1045.86h-110.61v-131.95h110.61v131.95ZM966.67,505.45c58.88-31.41,99.09-93.46,99.09-164.73,0-102.93-83.71-186.66-186.6-186.66s-186.66,83.73-186.66,186.66c0,71.28,40.21,133.33,99.12,164.75-134.36,38.18-233.07,162.01-233.07,308.45,0,9.39,7.61,17,17,17h607.2c9.39,0,17-7.61,17-17,0-146.45-98.7-270.29-233.08-308.45v-.02ZM726.51,340.72c0-84.17,68.48-152.66,152.66-152.66s152.6,68.48,152.6,152.66-68.46,152.6-152.6,152.6-152.66-68.46-152.66-152.6ZM593.07,796.92c8.83-150.16,133.78-269.6,286.1-269.6s277.27,119.46,286.1,269.6h-572.19s-.01,0-.01,0ZM716.73,896.93c0-9.39,7.61-17,17-17h219.7c9.39,0,17,7.61,17,17s-7.61,17-17,17h-219.7c-9.39,0-17-7.61-17-17ZM970.43,1062.88c0,9.39-7.61,17-17,17h-219.7c-9.39,0-17-7.61-17-17s7.61-17,17-17h219.7c9.39,0,17,7.61,17,17h0ZM1098.25,979.87c0,9.39-7.61,17-17,17h-347.52c-9.39,0-17-7.61-17-17s7.61-17,17-17h347.52c9.39,0,17,7.61,17,17Z"/>
</svg>