<svg width="125" height="125" viewBox="0 0 125 125" fill="none" xmlns="http://www.w3.org/2000/svg">
<rect width="100%" height="100%" fill="transparent" />
<path d="M27.2499 18.8333C21.4622 33.5208 22.8749 53.1333 38.7499 60.9583C46.125 64.6082 55.7999 63.7582 61.9374 58.0583C66.6998 53.6333 66.9374 45.9958 60.0624 43.8208C55.1638 42.4707 49.9143 43.5743 45.9749 46.7834C31.0874 58.7459 44.1748 78.3834 57.1124 84.996C72.1124 92.6836 90.1999 91.9711 105.012 84.371C107.163 83.2711 109.062 86.5085 106.912 87.6082C90.8497 95.8455 71.4247 96.5706 55.2122 88.2332C41.9997 81.4583 31.0747 66.2457 37.8872 51.1582C39.3406 47.9429 41.6283 45.1755 44.512 43.1423C47.3958 41.1091 50.771 39.8847 54.2874 39.5957C59.9873 39.1209 67.2624 41.3458 69.2874 47.3207C71.6499 54.1457 65.6123 60.8582 60.0625 63.9207C56.9685 65.5919 53.5566 66.5917 50.0499 66.8541C46.5437 67.1169 43.0208 66.6372 39.7122 65.4457C20.2497 58.3705 16.8622 34.9957 23.6372 17.8332C24.512 15.6209 28.1371 16.5832 27.2497 18.8334L27.2499 18.8333Z" fill="#4BBEDB"/>
<path d="M93.5375 98.85C98.4581 94.51 103.12 89.8852 107.5 85L107.887 87.9374C101.011 84.3908 94.4613 80.2453 88.3123 75.5499C86.4247 74.0997 88.3123 70.8376 90.2121 72.3126L90.2121 72.3122C96.3547 77.0103 102.902 81.1557 109.775 84.6997C110.271 84.9979 110.605 85.5066 110.68 86.0811C110.756 86.6557 110.565 87.2331 110.162 87.6498C105.798 92.5334 101.153 97.1578 96.2495 101.5C94.4494 103.087 91.7744 100.437 93.5994 98.8497L93.5375 98.85Z" fill="#4BBEDB"/>
</svg>
