<svg width="40" height="41" viewBox="0 0 40 41" fill="none" xmlns="http://www.w3.org/2000/svg">
<circle cx="20" cy="20.5195" r="20" fill="#4BBEDB"/>
<path d="M12.8782 16.3515C12.8782 14.9702 13.2095 13.8082 13.8722 12.8655C14.5349 11.9135 15.4215 11.1995 16.5322 10.7235C17.6522 10.2382 18.8935 9.99553 20.2562 9.99553C21.7215 9.99553 23.0189 10.1962 24.1482 10.5975C25.2869 10.9895 26.1782 11.5822 26.8222 12.3755C27.4755 13.1689 27.8022 14.1535 27.8022 15.3295C27.8022 16.3282 27.4989 17.2195 26.8922 18.0035C26.2855 18.7875 25.3289 19.4035 24.0222 19.8515C24.8342 20.0755 25.5622 20.4115 26.2062 20.8595C26.8502 21.2982 27.3589 21.8489 27.7322 22.5115C28.1149 23.1742 28.3062 23.9535 28.3062 24.8495C28.3062 25.8109 28.0962 26.6649 27.6762 27.4115C27.2655 28.1582 26.6869 28.7882 25.9402 29.3015C25.2029 29.8055 24.3395 30.1882 23.3502 30.4495C22.3609 30.7015 21.2969 30.8275 20.1582 30.8275C18.6369 30.8182 17.3255 30.5569 16.2242 30.0435C15.1229 29.5302 14.2642 28.7975 13.6482 27.8455C13.0415 26.8935 12.7242 25.7642 12.6962 24.4575H16.0142C16.2102 25.6615 16.6862 26.5575 17.4422 27.1455C18.2075 27.7242 19.1362 28.0135 20.2282 28.0135C21.1335 28.0135 21.9175 27.8782 22.5802 27.6075C23.2429 27.3275 23.7515 26.9449 24.1062 26.4595C24.4702 25.9742 24.6522 25.4095 24.6522 24.7655C24.6522 24.0842 24.4562 23.5009 24.0642 23.0155C23.6815 22.5302 23.1542 22.1569 22.4822 21.8955C21.8102 21.6342 21.0542 21.4942 20.2142 21.4755L18.3382 21.4195V18.6475L20.0742 18.5775C20.8769 18.5495 21.5815 18.3955 22.1882 18.1155C22.8042 17.8355 23.2849 17.4669 23.6302 17.0095C23.9755 16.5522 24.1482 16.0389 24.1482 15.4695C24.1482 14.9469 23.9849 14.4755 23.6582 14.0555C23.3409 13.6355 22.8882 13.3089 22.3002 13.0755C21.7122 12.8329 21.0169 12.7115 20.2142 12.7115C19.5329 12.7115 18.8935 12.8329 18.2962 13.0755C17.6989 13.3182 17.2042 13.7102 16.8122 14.2515C16.4295 14.7835 16.2195 15.4835 16.1822 16.3515H12.8782Z" fill="white"/>
</svg>
