<svg width="554" height="110" viewBox="0 0 554 110" fill="none" xmlns="http://www.w3.org/2000/svg">
<path d="M549.224 45.9601V108H536.864V45.9601H549.224Z" fill="#23395B"/>
<path d="M490.978 109.2C486.978 109.2 483.418 108.48 480.298 107.04C477.218 105.6 474.798 103.52 473.038 100.8C471.278 98.08 470.398 94.8 470.398 90.96C470.398 84.08 472.838 78.94 477.718 75.54C482.598 72.14 490.378 70.34 501.058 70.14L511.258 69.84V65.34C511.258 61.78 510.198 58.98 508.078 56.94C505.958 54.9 502.698 53.9 498.298 53.94C494.978 53.94 492.018 54.7 489.418 56.22C486.858 57.74 485.178 60.24 484.378 63.72H473.218C473.458 59.6 474.638 56.14 476.758 53.34C478.918 50.5 481.878 48.36 485.638 46.92C489.398 45.48 493.818 44.76 498.898 44.76C504.538 44.76 509.178 45.54 512.818 47.1C516.458 48.62 519.158 50.86 520.918 53.82C522.718 56.78 523.618 60.38 523.618 64.62V108H512.758L511.738 96.6C509.418 101.36 506.478 104.66 502.918 106.5C499.398 108.3 495.418 109.2 490.978 109.2ZM494.998 100.26C496.958 100.26 498.898 99.92 500.818 99.24C502.738 98.52 504.478 97.56 506.038 96.36C507.598 95.12 508.838 93.74 509.758 92.22C510.718 90.7 511.218 89.14 511.258 87.54V77.28L502.858 77.46C498.578 77.5 494.938 77.94 491.938 78.78C488.978 79.62 486.698 80.92 485.098 82.68C483.538 84.44 482.758 86.78 482.758 89.7C482.758 93.02 483.918 95.62 486.238 97.5C488.558 99.34 491.478 100.26 494.998 100.26Z" fill="#23395B"/>
<path d="M448.822 108V92.52H463.642V108H448.822Z" fill="#23395B"/>
<path d="M408.003 109.2C399.843 109.2 393.423 106.42 388.743 100.86C384.063 95.26 381.723 87.2 381.723 76.68C381.723 70.24 382.663 64.64 384.543 59.88C386.423 55.08 389.223 51.36 392.943 48.72C396.703 46.08 401.343 44.76 406.863 44.76C409.663 44.76 412.143 45.1 414.303 45.78C416.503 46.46 418.423 47.34 420.063 48.42C421.743 49.5 423.123 50.66 424.203 51.9C425.323 53.14 426.183 54.3 426.783 55.38V18.84H439.683V108H430.083L428.643 95.28C428.203 96.64 427.523 98.12 426.603 99.72C425.683 101.32 424.423 102.84 422.823 104.28C421.263 105.72 419.263 106.9 416.823 107.82C414.383 108.74 411.443 109.2 408.003 109.2ZM410.463 99.54C416.223 99.54 420.383 97.74 422.943 94.14C425.503 90.5 426.783 84.54 426.783 76.26C426.743 71.58 426.163 67.62 425.043 64.38C423.923 61.14 422.183 58.7 419.823 57.06C417.503 55.38 414.443 54.54 410.643 54.54C405.883 54.54 402.003 56.26 399.003 59.7C396.003 63.1 394.503 68.62 394.503 76.26C394.503 83.78 395.863 89.54 398.583 93.54C401.343 97.54 405.303 99.54 410.463 99.54Z" fill="#23395B"/>
<path d="M333.368 79.98C333.368 83.7 333.968 87.04 335.168 90C336.408 92.92 338.268 95.24 340.748 96.96C343.228 98.64 346.308 99.48 349.988 99.48C353.668 99.48 356.848 98.64 359.528 96.96C362.248 95.28 364.028 92.78 364.868 89.46H376.748C376.028 93.7 374.328 97.3 371.648 100.26C369.008 103.22 365.808 105.46 362.048 106.98C358.288 108.46 354.348 109.2 350.228 109.2C344.348 109.2 339.168 107.94 334.688 105.42C330.208 102.86 326.708 99.22 324.188 94.5C321.708 89.78 320.468 84.16 320.468 77.64C320.468 71.2 321.608 65.52 323.888 60.6C326.168 55.64 329.468 51.76 333.788 48.96C338.108 46.16 343.308 44.76 349.388 44.76C355.388 44.76 360.428 46.04 364.508 48.6C368.628 51.16 371.748 54.76 373.868 59.4C375.988 64 377.048 69.44 377.048 75.72V79.98H333.368ZM333.368 71.64H364.808C364.808 68.4 364.248 65.46 363.128 62.82C362.008 60.14 360.288 58.04 357.968 56.52C355.688 54.96 352.808 54.18 349.328 54.18C345.768 54.18 342.808 55.04 340.448 56.76C338.088 58.48 336.308 60.68 335.108 63.36C333.948 66.04 333.368 68.8 333.368 71.64Z" fill="#23395B"/>
<path d="M316.145 55.2H302.225L302.285 92.22C302.285 94.26 302.485 95.76 302.885 96.72C303.325 97.64 304.045 98.24 305.045 98.52C306.085 98.76 307.485 98.88 309.245 98.88H316.505V107.22C315.705 107.54 314.505 107.82 312.905 108.06C311.345 108.3 309.325 108.42 306.845 108.42C302.245 108.42 298.665 107.8 296.105 106.56C293.585 105.32 291.825 103.54 290.825 101.22C289.865 98.86 289.385 96.02 289.385 92.7V55.2H279.305V45.96H289.745L292.925 27.72H302.225V45.9H316.145V55.2Z" fill="#23395B"/>
<path d="M241.134 109.2C237.134 109.2 233.574 108.48 230.454 107.04C227.374 105.6 224.954 103.52 223.194 100.8C221.434 98.08 220.554 94.8 220.554 90.96C220.554 84.08 222.994 78.94 227.874 75.54C232.754 72.14 240.534 70.34 251.214 70.14L261.414 69.84V65.34C261.414 61.78 260.354 58.98 258.234 56.94C256.114 54.9 252.854 53.9 248.454 53.94C245.134 53.94 242.174 54.7 239.574 56.22C237.014 57.74 235.334 60.24 234.534 63.72H223.374C223.614 59.6 224.794 56.14 226.914 53.34C229.074 50.5 232.034 48.36 235.794 46.92C239.554 45.48 243.974 44.76 249.054 44.76C254.694 44.76 259.334 45.54 262.974 47.1C266.614 48.62 269.314 50.86 271.074 53.82C272.874 56.78 273.774 60.38 273.774 64.62V108H262.914L261.894 96.6C259.574 101.36 256.634 104.66 253.074 106.5C249.554 108.3 245.574 109.2 241.134 109.2ZM245.154 100.26C247.114 100.26 249.054 99.92 250.974 99.24C252.894 98.52 254.634 97.56 256.194 96.36C257.754 95.12 258.994 93.74 259.914 92.22C260.874 90.7 261.374 89.14 261.414 87.54V77.28L253.014 77.46C248.734 77.5 245.094 77.94 242.094 78.78C239.134 79.62 236.854 80.92 235.254 82.68C233.694 84.44 232.914 86.78 232.914 89.7C232.914 93.02 234.074 95.62 236.394 97.5C238.714 99.34 241.634 100.26 245.154 100.26Z" fill="#23395B"/>
<path d="M214.942 55.2H201.022L201.082 92.22C201.082 94.26 201.282 95.76 201.682 96.72C202.122 97.64 202.842 98.24 203.842 98.52C204.882 98.76 206.282 98.88 208.042 98.88H215.302V107.22C214.502 107.54 213.302 107.82 211.702 108.06C210.142 108.3 208.122 108.42 205.642 108.42C201.042 108.42 197.462 107.8 194.902 106.56C192.382 105.32 190.622 103.54 189.622 101.22C188.662 98.86 188.182 96.02 188.182 92.7V55.2H178.102V45.96H188.542L191.722 27.72H201.022V45.9H214.942V55.2Z" fill="#23395B"/>
<path d="M149.842 109.2C145.522 109.2 141.462 108.52 137.662 107.16C133.902 105.8 130.742 103.66 128.182 100.74C125.662 97.82 124.082 94.08 123.442 89.52H134.902C135.422 91.88 136.402 93.84 137.842 95.4C139.322 96.92 141.082 98.06 143.122 98.82C145.202 99.54 147.422 99.9 149.782 99.9C153.702 99.9 156.862 99.2 159.262 97.8C161.702 96.36 162.922 94.16 162.922 91.2C162.922 89.08 162.262 87.38 160.942 86.1C159.662 84.82 157.622 83.88 154.822 83.28L142.462 80.34C137.342 79.14 133.242 77.24 130.162 74.64C127.082 72 125.522 68.32 125.482 63.6C125.482 59.96 126.382 56.72 128.182 53.88C130.022 51.04 132.742 48.82 136.342 47.22C139.942 45.58 144.422 44.76 149.782 44.76C156.782 44.76 162.402 46.32 166.642 49.44C170.882 52.56 173.082 57.08 173.242 63H162.142C161.742 60.16 160.442 57.94 158.242 56.34C156.082 54.7 153.222 53.88 149.662 53.88C145.982 53.88 142.962 54.62 140.602 56.1C138.242 57.54 137.062 59.76 137.062 62.76C137.062 64.8 137.922 66.42 139.642 67.62C141.362 68.78 143.942 69.74 147.382 70.5L159.142 73.44C162.182 74.24 164.682 75.3 166.642 76.62C168.602 77.9 170.142 79.32 171.262 80.88C172.382 82.44 173.162 84.06 173.602 85.74C174.082 87.42 174.322 89 174.322 90.48C174.322 94.4 173.322 97.76 171.322 100.56C169.362 103.32 166.542 105.46 162.862 106.98C159.222 108.46 154.882 109.2 149.842 109.2Z" fill="#23395B"/>
<path d="M75.4388 79.98C75.4388 83.7 76.0388 87.04 77.2388 90C78.4788 92.92 80.3388 95.24 82.8188 96.96C85.2988 98.64 88.3788 99.48 92.0588 99.48C95.7388 99.48 98.9188 98.64 101.599 96.96C104.319 95.28 106.099 92.78 106.939 89.46H118.819C118.099 93.7 116.399 97.3 113.719 100.26C111.079 103.22 107.879 105.46 104.119 106.98C100.359 108.46 96.4188 109.2 92.2988 109.2C86.4188 109.2 81.2388 107.94 76.7588 105.42C72.2788 102.86 68.7788 99.22 66.2588 94.5C63.7788 89.78 62.5388 84.16 62.5388 77.64C62.5388 71.2 63.6788 65.52 65.9588 60.6C68.2388 55.64 71.5388 51.76 75.8588 48.96C80.1788 46.16 85.3788 44.76 91.4588 44.76C97.4588 44.76 102.499 46.04 106.579 48.6C110.699 51.16 113.819 54.76 115.939 59.4C118.059 64 119.119 69.44 119.119 75.72V79.98H75.4388ZM75.4388 71.64H106.879C106.879 68.4 106.319 65.46 105.199 62.82C104.079 60.14 102.359 58.04 100.039 56.52C97.7588 54.96 94.8787 54.18 91.3988 54.18C87.8388 54.18 84.8788 55.04 82.5188 56.76C80.1588 58.48 78.3788 60.68 77.1788 63.36C76.0188 66.04 75.4388 68.8 75.4388 71.64Z" fill="#23395B"/>
<path d="M31.74 109.2C28.26 109.2 25.3 108.74 22.86 107.82C20.42 106.9 18.4 105.72 16.8 104.28C15.24 102.84 14 101.32 13.08 99.72C12.2 98.12 11.52 96.64 11.04 95.28L9.66 108H0V18.84H12.96V55.38C13.52 54.3 14.34 53.14 15.42 51.9C16.54 50.66 17.92 49.5 19.56 48.42C21.24 47.34 23.18 46.46 25.38 45.78C27.58 45.1 30.06 44.76 32.82 44.76C40.54 44.76 46.66 47.48 51.18 52.92C55.74 58.36 58.02 66.28 58.02 76.68C58.02 83.24 57.04 88.96 55.08 93.84C53.12 98.68 50.18 102.46 46.26 105.18C42.38 107.86 37.54 109.2 31.74 109.2ZM29.22 99.54C33.94 99.54 37.78 97.7 40.74 94.02C43.74 90.34 45.24 84.42 45.24 76.26C45.24 69.22 43.84 63.84 41.04 60.12C38.28 56.4 34.28 54.54 29.04 54.54C25.28 54.54 22.22 55.38 19.86 57.06C17.5 58.7 15.76 61.14 14.64 64.38C13.56 67.62 13 71.58 12.96 76.26C12.96 84.54 14.24 90.5 16.8 94.14C19.36 97.74 23.5 99.54 29.22 99.54Z" fill="#23395B"/>
<path fill-rule="evenodd" clip-rule="evenodd" d="M541.95 0.000633333C546.631 8.683 548.322 10.5441 542.176 20.5799C540.203 23.7371 540.091 27.5148 541.499 29.8259C545.277 36.1969 557.455 28.6414 549.448 19.4516C552.041 21.3115 553.79 24.3558 553.79 27.7951C553.79 33.4327 549.166 38 543.528 38C538.117 38 533.662 33.7709 533.324 28.4151C532.703 17.5896 544.599 10.9943 541.949 0L541.95 0.000633333Z" fill="#23395B"/>
</svg>
