<svg width="26" height="25" viewBox="0 0 26 25" fill="none" xmlns="http://www.w3.org/2000/svg">
<g clip-path="url(#clip0_788_389)">
<path d="M19.169 7.37781C20.0321 7.37781 20.7318 6.67812 20.7318 5.815C20.7318 4.95189 20.0321 4.2522 19.169 4.2522C18.3059 4.2522 17.6062 4.95189 17.6062 5.815C17.6062 6.67812 18.3059 7.37781 19.169 7.37781Z" fill="#A7BCDD"/>
<path d="M12.5225 18.7504C15.9745 18.7504 18.7721 15.9528 18.7721 12.5008C18.7721 9.04886 15.9745 6.25122 12.5225 6.25122C9.07059 6.25122 6.27295 9.04886 6.27295 12.5008C6.27295 15.9528 9.07059 18.7504 12.5225 18.7504ZM12.5225 8.43718C14.7659 8.44046 16.5829 10.2575 16.5845 12.4992C16.5845 14.7425 14.7659 16.5612 12.5225 16.5612C10.2792 16.5612 8.46055 14.7425 8.46055 12.4992C8.46055 10.2558 10.2792 8.43718 12.5225 8.43718Z" fill="#A7BCDD"/>
<path d="M6.27303 25H18.7738C22.2258 25 25.0234 22.2024 25.0234 18.7504V6.24959C25.0234 2.79764 22.2258 0 18.7738 0H6.27303C2.82108 0 0.0234375 2.79764 0.0234375 6.24959V18.7504C0.0234375 22.2024 2.82108 25 6.27303 25ZM2.21104 6.24959C2.21432 4.00623 4.03131 2.18924 6.27303 2.1876H18.7738C21.0172 2.19088 22.8342 4.00787 22.8358 6.24959V18.7504C22.8326 20.9938 21.0156 22.8108 18.7738 22.8124H6.27303C4.02967 22.8091 2.21268 20.9921 2.21104 18.7504V6.24959Z" fill="#A7BCDD"/>
</g>
<defs>
<clipPath id="clip0_788_389">
<rect width="25" height="25" fill="white" transform="translate(0.0234375)"/>
</clipPath>
</defs>
</svg>
