<svg width="80" height="63" viewBox="0 0 80 63" fill="none" xmlns="http://www.w3.org/2000/svg">
<path d="M40.9414 48.7587H24.0945C18.1614 48.7587 13.3348 43.8974 13.3348 37.9218C13.3348 31.9462 18.1614 27.0897 24.0945 27.0897H40.9414C41.5676 27.0897 42.0752 26.5785 42.0752 25.9478V14.8006C42.0752 14.1699 41.5676 13.6587 40.9414 13.6587H24.0945C10.8084 13.6594 0 24.5432 0 37.9218C0 44.3777 2.51369 50.4655 7.07756 55.0621C11.6414 59.6586 17.6859 62.1904 24.0958 62.1904H40.9427C41.569 62.1904 42.0765 61.6792 42.0765 61.0484V49.9013C42.0765 49.2705 41.569 48.7593 40.9427 48.7593L40.9414 48.758V48.7587ZM39.8076 24.8052H32.4306V15.9419H39.8076V24.8052ZM2.26693 37.9205C2.26693 25.8014 12.0583 15.9405 24.0938 15.9405H30.1623V24.8039H24.0938C20.6384 24.8039 17.3731 26.1742 14.9014 28.6636C12.4291 31.1529 11.0665 34.4397 11.0665 37.9205C11.0665 41.4013 12.4277 44.6887 14.9014 47.1795C17.3738 49.6695 20.6391 51.0418 24.0945 51.0418H30.163V59.9052H24.0945C12.0589 59.9052 2.26759 50.0437 2.26759 37.9218H2.26693V37.9205ZM39.8076 59.9038H32.4306V51.0405H39.8076V59.9038ZM64.455 23.6035C68.3819 21.4936 71.0637 17.3256 71.0637 12.5383C71.0637 5.6243 65.4807 0 58.6186 0C51.7565 0 46.1695 5.6243 46.1695 12.5383C46.1695 17.3263 48.8513 21.4943 52.7802 23.6048C43.8192 26.1695 37.2359 34.4874 37.2359 44.324C37.2359 44.9547 37.7434 45.4659 38.3697 45.4659H78.8662C79.4925 45.4659 80 44.9547 80 44.324C80 34.4867 73.4173 26.1681 64.455 23.6048V23.6035ZM48.4378 12.5383C48.4378 6.88444 53.005 2.28384 58.6193 2.28384C64.2336 2.28384 68.7968 6.88377 68.7968 12.5383C68.7968 18.1928 64.2309 22.7887 58.6193 22.7887C53.0076 22.7887 48.4378 18.1901 48.4378 12.5383ZM39.5381 43.1821C40.1271 33.0956 48.4605 25.0726 58.6193 25.0726C68.7781 25.0726 77.1115 33.0969 77.7004 43.1821H39.5388H39.5381ZM47.7855 49.8999C47.7855 49.2692 48.2931 48.758 48.9193 48.758H63.572C64.1982 48.758 64.7058 49.2692 64.7058 49.8999C64.7058 50.5307 64.1982 51.0418 63.572 51.0418H48.9193C48.2931 51.0418 47.7855 50.5307 47.7855 49.8999ZM64.7058 61.0471C64.7058 61.6778 64.1982 62.189 63.572 62.189H48.9193C48.2931 62.189 47.7855 61.6778 47.7855 61.0471C47.7855 60.4163 48.2931 59.9052 48.9193 59.9052H63.572C64.1982 59.9052 64.7058 60.4163 64.7058 61.0471ZM73.2306 55.4712C73.2306 56.1019 72.723 56.6131 72.0968 56.6131H48.9193C48.2931 56.6131 47.7855 56.1019 47.7855 55.4712C47.7855 54.8404 48.2931 54.3292 48.9193 54.3292H72.0968C72.723 54.3292 73.2306 54.8404 73.2306 55.4712Z" fill="#4BBEDB"/>
</svg>
