<svg width="80" height="65" viewBox="0 0 80 65" fill="none" xmlns="http://www.w3.org/2000/svg">
<path d="M7.8786 64.861C7.48105 64.861 7.08675 64.7299 6.7471 64.4697C6.12638 63.9992 5.85896 63.2646 6.03138 62.5038L8.14537 53.0311C8.19742 52.7808 8.11088 52.5207 7.91959 52.3509L0.688839 45.9412C0.0947889 45.4445 -0.133592 44.6994 0.0765705 43.9425C0.0791731 43.9347 0.0811252 43.9261 0.0837278 43.9183C0.261357 43.337 0.783184 42.6817 1.71558 42.5867C1.71753 42.5867 1.72013 42.5867 1.72208 42.5867L11.3297 41.6712C11.575 41.6483 11.7982 41.4884 11.8873 41.2721C11.8886 41.2682 11.8905 41.2642 11.8925 41.2603L15.7288 32.3381C16.0957 31.4797 16.8726 31.173 17.4777 31.173C18.0828 31.173 18.8662 31.4803 19.2287 32.3427L23.0584 41.2505C23.1697 41.491 23.3811 41.6515 23.6121 41.6705C23.6167 41.6705 23.6212 41.6712 23.6258 41.6718L33.2334 42.5873C33.2334 42.5873 33.2379 42.5873 33.2399 42.5873C34.1912 42.6843 34.7143 43.3685 34.8757 43.9301C35.0995 44.6771 34.8926 45.4249 34.3206 45.9314L27.0788 52.3516C26.8856 52.5226 26.8017 52.7775 26.8537 53.0331L28.967 62.5031C29.1726 63.399 28.7308 64.108 28.2474 64.473C27.7906 64.8177 26.9721 65.0576 26.1673 64.5975C26.1621 64.5943 26.1562 64.591 26.151 64.5884L17.8545 59.6348C17.6443 59.509 17.3632 59.5109 17.1355 59.6394L8.84678 64.5884C8.54097 64.7712 8.20848 64.8616 7.8786 64.8616V64.861ZM2.05066 44.529L9.20854 50.8751C9.93012 51.5154 10.2535 52.5003 10.0524 53.4466L10.0505 53.4565L7.95798 62.8328L16.1478 57.9428C16.1523 57.9401 16.1569 57.9375 16.1615 57.9349C17.0028 57.4506 18.0334 57.4539 18.8506 57.9434L27.0391 62.8328L24.9466 53.4565C24.946 53.4525 24.9447 53.4486 24.944 53.4447C24.7449 52.4977 25.0683 51.5134 25.7879 50.8751L32.9419 44.5323L23.4475 43.628C22.5119 43.5493 21.6816 42.9484 21.2782 42.0572C21.2756 42.0513 21.273 42.046 21.2704 42.0401L17.4764 33.2169L13.6851 42.0349C13.3174 42.9143 12.4644 43.5388 11.5099 43.6273L2.04936 44.5284L2.05066 44.529ZM32.9992 44.472C32.9992 44.472 32.9998 44.4746 33.0005 44.4766C33.0005 44.4753 32.9998 44.474 32.9992 44.472Z" fill="#4BBEDB"/>
<path d="M30.3952 33.688C29.9977 33.688 29.604 33.5569 29.2644 33.2974C28.643 32.8269 28.3749 32.0916 28.5474 31.3308L30.6613 21.8588C30.7134 21.6085 30.6269 21.3477 30.4356 21.1786L23.2055 14.7689C22.6114 14.2722 22.3824 13.5271 22.5932 12.7702C22.5952 12.7623 22.5978 12.7545 22.6004 12.746C22.778 12.1647 23.2998 11.5094 24.2329 11.4144L33.847 10.4982C34.0923 10.4753 34.3154 10.3154 34.4052 10.0991C34.4072 10.0952 34.4085 10.0913 34.4104 10.0873L38.2467 1.16516C38.6137 0.306689 39.3912 0 39.9957 0C40.6001 0 41.3848 0.307345 41.7466 1.16974L45.5763 10.0768C45.6876 10.3173 45.8991 10.4786 46.1301 10.4969C46.1346 10.4969 46.1392 10.4976 46.1437 10.4982L55.7513 11.4137C56.7091 11.5113 57.2322 12.1948 57.3936 12.7571C57.6174 13.5042 57.4105 14.2519 56.8386 14.7584L49.5968 21.1786C49.4035 21.3496 49.3196 21.6046 49.3716 21.8601L51.485 31.3308C51.6906 32.2266 51.2481 32.935 50.7653 33.3C50.3092 33.6447 49.4907 33.8846 48.6852 33.4246C48.68 33.4213 48.6741 33.418 48.6689 33.4154L40.3724 28.4618C40.1622 28.336 39.8812 28.338 39.6534 28.4664L31.3647 33.4154C31.0595 33.5982 30.7264 33.6887 30.3965 33.6887L30.3952 33.688ZM24.5673 13.3561L31.7252 19.7022C32.4467 20.3424 32.7701 21.328 32.5684 22.2736L32.5665 22.2835L30.474 31.6598L38.6638 26.7698C38.6683 26.7672 38.6729 26.7645 38.6774 26.7619C39.5187 26.2776 40.5494 26.2809 41.3666 26.7704L49.5551 31.6598L47.4626 22.2835C47.462 22.2795 47.4607 22.2756 47.46 22.2717C47.2609 21.3254 47.5843 20.3405 48.3039 19.7022L55.4579 13.3593L45.9635 12.455C45.0278 12.3764 44.1976 11.7754 43.7949 10.8842C43.7922 10.8783 43.7896 10.8731 43.787 10.8672L39.9931 2.04394L36.2017 10.8626C35.8341 11.742 34.9811 12.3665 34.0265 12.455L24.566 13.3561H24.5673ZM55.5164 13.2997C55.5164 13.2997 55.5164 13.3023 55.5177 13.3036C55.5177 13.3023 55.5171 13.301 55.5164 13.2997Z" fill="#4BBEDB"/>
<path d="M52.9141 64.861C52.5166 64.861 52.1223 64.7299 51.7826 64.4697C51.1619 63.9992 50.8945 63.2646 51.0669 62.5038L53.1809 53.0318C53.2329 52.7815 53.1464 52.5207 52.9551 52.3509L45.725 45.9412C45.131 45.4445 44.9019 44.6994 45.1127 43.9425C45.1153 43.9347 45.1173 43.9261 45.1199 43.9183C45.2975 43.337 45.82 42.6817 46.7517 42.5867C46.7537 42.5867 46.7563 42.5867 46.7582 42.5867L56.3658 41.6712C56.6105 41.6483 56.8343 41.4884 56.9235 41.2721L56.9287 41.2603L60.7649 32.3381C61.1319 31.4797 61.9088 31.173 62.5139 31.173C63.119 31.173 63.9024 31.4803 64.2648 32.3427L68.0946 41.2505C68.2059 41.491 68.4173 41.6515 68.6483 41.6705C68.6528 41.6705 68.6574 41.6712 68.662 41.6718L78.2696 42.5873C78.2696 42.5873 78.2741 42.5873 78.2761 42.5873C79.228 42.6843 79.7505 43.3685 79.9118 43.9301C80.1356 44.6771 79.9287 45.4249 79.3562 45.9314L72.1143 52.3516C71.9211 52.5226 71.8372 52.7775 71.8892 53.0331L74.0025 62.5038C74.2082 63.399 73.7664 64.108 73.2829 64.473C72.8262 64.8177 72.0076 65.0576 71.2028 64.5975C71.1976 64.5943 71.1917 64.591 71.1865 64.5884L62.89 59.6348C62.6798 59.509 62.3987 59.5109 62.171 59.6394L53.8823 64.5884C53.5765 64.7712 53.244 64.8616 52.9141 64.8616V64.861ZM47.0868 44.529L54.2447 50.8751C54.9663 51.5154 55.2897 52.5003 55.0886 53.4466L55.0867 53.4565L52.9941 62.8328L61.184 57.9428C61.1885 57.9401 61.1931 57.9375 61.1976 57.9349C62.0389 57.4506 63.0696 57.4539 63.8874 57.9434L72.076 62.8328L69.9834 53.4565C69.9828 53.4525 69.9815 53.4486 69.9808 53.4447C69.7817 52.4984 70.1051 51.5134 70.8247 50.8751L77.9787 44.5323L68.4843 43.628C67.5487 43.5493 66.7184 42.9478 66.315 42.0572C66.3124 42.0513 66.3098 42.046 66.3072 42.0401L62.5133 33.2169L58.7212 42.0355C58.3536 42.915 57.5006 43.5395 56.5461 43.628L47.0855 44.529H47.0868ZM78.0353 44.472C78.0353 44.472 78.0353 44.474 78.036 44.4753V44.472H78.0353Z" fill="#4BBEDB"/>
</svg>
