<svg width="80" height="74" viewBox="0 0 80 74" fill="none" xmlns="http://www.w3.org/2000/svg">
<path d="M33.3975 14.085V12.8664C33.3975 11.3818 32.1985 10.1769 30.7265 10.1769H28.2428C26.7655 10.1769 25.5748 11.3818 25.5748 12.8581V14.0766C11.2796 16.0292 0.224854 28.4942 0.224854 43.5505C0.224854 59.9455 13.3496 73.2926 29.4854 73.2926C45.6212 73.2926 58.7459 59.9455 58.7459 43.5505C58.7459 28.4949 47.6927 16.0299 33.396 14.0857L33.3975 14.085ZM26.9746 12.8581C26.9746 12.1491 27.5463 11.5753 28.2511 11.5753H30.7348C31.4403 11.5753 32.0112 12.1498 32.0112 12.8581V13.9202C31.1831 13.8476 30.3497 13.8053 29.4997 13.8053C28.6497 13.8053 27.8156 13.8476 26.9882 13.9202V12.8581H26.9739H26.9746ZM29.4869 71.8859C14.1206 71.8859 1.61714 59.1699 1.61714 43.5474C1.61714 27.925 14.1146 15.209 29.4869 15.209C44.8592 15.209 57.3567 27.9174 57.3567 43.5474C57.3567 59.1775 44.8532 71.8859 29.4869 71.8859Z" fill="#4BBEDB"/>
<path d="M29.4862 73.5196C13.2271 73.5196 0 60.0757 0 43.5507C0 36.2576 2.61758 29.2261 7.36986 23.751C12.0356 18.3757 18.4141 14.8759 25.35 13.8796V12.8583C25.35 11.255 26.6482 9.95032 28.2436 9.95032H30.7273C32.3242 9.95032 33.6239 11.2588 33.6239 12.8666V13.8886C40.559 14.8804 46.9375 18.378 51.6033 23.7525C56.3556 29.2261 58.9724 36.2576 58.9724 43.5507C58.9724 60.0757 45.7446 73.5196 29.4862 73.5196ZM28.2436 10.4039C26.8972 10.4039 25.8013 11.5052 25.8013 12.8583V14.2749L25.6057 14.3014C11.2654 16.2599 0.451308 28.8346 0.451308 43.5499C0.451308 59.8247 13.4761 73.0653 29.4862 73.0653C45.4963 73.0653 58.5211 59.8247 58.5211 43.5499C58.5211 28.8308 47.707 16.2607 33.3667 14.3104L32.8341 14.2379L33.1719 13.974V12.8659C33.1719 11.5083 32.0752 10.4031 30.7265 10.4031H28.2428L28.2436 10.4039ZM29.4862 72.1121C13.9943 72.1121 1.39078 59.2979 1.39078 43.5469C1.39078 27.7959 13.9943 14.9817 29.4862 14.9817C44.9781 14.9817 57.5816 27.7959 57.5816 43.5469C57.5816 59.2979 44.9781 72.1121 29.4862 72.1121ZM29.4862 15.4352C14.2433 15.4352 1.84209 28.0461 1.84209 43.5469C1.84209 59.0477 14.2433 71.6586 29.4862 71.6586C44.7291 71.6586 57.1303 59.0477 57.1303 43.5469C57.1303 28.0461 44.7291 15.4352 29.4862 15.4352ZM32.2384 14.1676L31.9932 14.1456C31.1207 14.0693 30.3053 14.0315 29.5012 14.0315C28.6972 14.0315 27.8818 14.0685 27.0093 14.1456L26.7641 14.1676V13.0851H26.7498V12.8583C26.7498 12.0261 27.4237 11.3488 28.2519 11.3488H30.7356C31.5637 11.3488 32.2377 12.0261 32.2377 12.8583V14.1676H32.2384ZM29.5005 13.5779C30.2421 13.5779 30.9921 13.6089 31.7864 13.6732V12.8576C31.7864 12.2748 31.3147 11.8016 30.7356 11.8016H28.2519C27.7306 11.8016 27.2966 12.1848 27.2146 12.6852V13.6732C28.0089 13.6089 28.7588 13.5779 29.5005 13.5779Z" fill="#4BBEDB"/>
<path d="M29.4869 17.436C15.3196 17.436 3.79468 29.1557 3.79468 43.5498C3.79468 57.9439 15.3278 69.6553 29.4869 69.6553C43.6459 69.6553 55.1791 57.9447 55.1791 43.5498C55.1791 29.155 43.6542 17.436 29.4869 17.436ZM29.4869 68.2569C16.0913 68.2569 5.18546 57.1767 5.18546 43.5491C5.18546 29.9215 16.0913 18.8383 29.4869 18.8383C42.8824 18.8383 53.7883 29.9268 53.7883 43.5544C53.7883 57.182 42.8824 68.2561 29.4869 68.2561V68.2569Z" fill="#4BBEDB"/>
<path d="M29.4867 69.8818C15.1953 69.8818 3.56885 58.0691 3.56885 43.5496C3.56885 29.03 15.1953 17.209 29.4867 17.209C43.7781 17.209 55.4046 29.0254 55.4046 43.5496C55.4046 58.0737 43.7781 69.8818 29.4867 69.8818ZM29.4867 17.6625C15.4443 17.6625 4.02016 29.2756 4.02016 43.5496C4.02016 57.8235 15.4443 69.4283 29.4867 69.4283C43.5292 69.4283 54.9533 57.8189 54.9533 43.5496C54.9533 29.2802 43.5292 17.6625 29.4867 17.6625ZM29.4867 68.4834C15.9625 68.4834 4.95963 57.2981 4.95963 43.5488C4.95963 29.7995 15.9625 18.6112 29.4867 18.6112C43.0109 18.6112 54.0138 29.8002 54.0138 43.5541C54.0138 57.3079 43.1335 68.3579 29.7124 68.4811L29.4867 68.4826V68.4834ZM29.3182 68.0298H29.4867C42.7619 68.0298 53.5625 57.0502 53.5625 43.5548C53.5625 30.0595 42.7619 19.0655 29.4867 19.0655C16.2115 19.0655 5.41094 30.0489 5.41094 43.5496C5.41094 57.0502 16.1197 67.9376 29.3182 68.0298Z" fill="#4BBEDB"/>
<path d="M29.4507 27.2608H29.5229C30.6715 27.2608 31.6139 26.322 31.6139 25.1594V22.7412C31.6139 21.5786 30.6715 20.6398 29.4507 20.6398C28.3021 20.6398 27.3596 21.5786 27.3596 22.7412V25.1594C27.3596 26.322 28.3021 27.2608 29.4507 27.2608ZM28.7594 22.7367C28.7594 22.3504 29.0746 22.0337 29.5236 22.0337C29.908 22.0337 30.2232 22.3504 30.2232 22.7367V25.1548C30.2232 25.5411 29.908 25.8578 29.5236 25.8578H29.4514C29.0671 25.8578 28.7519 25.5411 28.7519 25.1548V22.7367H28.7602H28.7594Z" fill="#4BBEDB"/>
<path d="M29.5232 27.4879H29.451C28.1738 27.4879 27.1343 26.4433 27.1343 25.1597V22.7415C27.1343 21.458 28.1738 20.4133 29.451 20.4133C30.7282 20.4133 31.8399 21.4361 31.8399 22.7415V25.1597C31.8399 26.4433 30.8004 27.4879 29.5232 27.4879ZM29.451 20.8676C28.4228 20.8676 27.5856 21.7082 27.5856 22.7423V25.1605C27.5856 26.1938 28.422 27.0351 29.451 27.0351H29.5232C30.5514 27.0351 31.3886 26.1946 31.3886 25.1605V22.7423C31.3886 21.6908 30.5371 20.8676 29.451 20.8676ZM29.5232 26.0842H29.451C28.941 26.0842 28.5258 25.6669 28.5258 25.1544V22.5102H28.5627C28.668 22.102 29.0523 21.8072 29.524 21.8072C30.0339 21.8072 30.4491 22.2245 30.4491 22.737V25.1544C30.4491 25.6669 30.0339 26.0842 29.524 26.0842H29.5232ZM28.9764 22.963V25.1537C28.9764 25.4167 29.1892 25.6299 29.4502 25.6299H29.5224C29.7842 25.6299 29.9963 25.416 29.9963 25.1537V22.7363C29.9963 22.4732 29.7835 22.26 29.5224 22.26C29.2103 22.26 28.9839 22.4603 28.9839 22.7363V22.963H28.9756H28.9764Z" fill="#4BBEDB"/>
<path d="M29.4507 59.8358C28.3021 59.8358 27.3596 60.783 27.3596 61.9373V64.3607C27.3596 65.515 28.3021 66.4622 29.4507 66.4622H29.5229C30.6715 66.4622 31.6139 65.515 31.6139 64.3607V61.9373C31.6139 60.783 30.6715 59.8358 29.4507 59.8358ZM30.2141 64.363C30.2141 64.7493 29.899 65.066 29.5146 65.066H29.4424C29.058 65.066 28.7429 64.7493 28.7429 64.363V61.9395C28.7429 61.5533 29.058 61.2365 29.5071 61.2365C29.8915 61.2365 30.2066 61.5533 30.2066 61.9395L30.2096 64.363H30.2149H30.2141Z" fill="#4BBEDB"/>
<path d="M29.5232 66.688H29.451C28.1738 66.688 27.1343 65.6434 27.1343 64.3598V61.9364C27.1343 60.6528 28.1738 59.6082 29.451 59.6082C30.7282 59.6082 31.8399 60.6309 31.8399 61.9364V64.3598C31.8399 65.6434 30.8004 66.688 29.5232 66.688ZM29.451 60.0625C28.4228 60.0625 27.5856 60.903 27.5856 61.9371V64.3606C27.5856 65.3939 28.422 66.2353 29.451 66.2353H29.5232C30.5514 66.2353 31.3886 65.3947 31.3886 64.3606V61.9371C31.3886 60.8864 30.5371 60.0625 29.451 60.0625ZM29.5149 65.2926H29.4427C28.9327 65.2926 28.5175 64.8754 28.5175 64.3629V61.9394C28.5175 61.4178 28.9523 61.0096 29.5074 61.0096C30.0174 61.0096 30.4326 61.4269 30.4326 61.9394L30.4356 64.1361L30.4416 64.3629C30.4416 64.8754 30.0264 65.2926 29.5164 65.2926H29.5149ZM29.5067 61.4632C29.1945 61.4632 28.9681 61.6635 28.9681 61.9394V64.3629C28.9681 64.6259 29.181 64.8391 29.442 64.8391H29.5142C29.7511 64.8391 29.9474 64.6637 29.9828 64.4362L29.9798 61.9402C29.9798 61.6771 29.7669 61.4632 29.5059 61.4632H29.5067Z" fill="#4BBEDB"/>
<path d="M49.9491 41.3976H47.5933C46.4364 41.3976 45.5022 42.3364 45.5022 43.499V43.5996C45.5022 44.7538 46.4364 45.701 47.5933 45.701H49.9491C51.0977 45.701 52.0401 44.7538 52.0401 43.5996V43.499C52.0401 42.3364 51.0977 41.3976 49.9491 41.3976ZM50.6464 43.5996C50.6464 43.9858 50.3312 44.3026 49.9468 44.3026H47.591C47.1976 44.3026 46.8915 43.9858 46.8915 43.5996V43.499C46.8915 43.1128 47.1984 42.796 47.591 42.796H49.9468C50.3312 42.796 50.6464 43.1128 50.6464 43.499V43.5996Z" fill="#4BBEDB"/>
<path d="M49.9492 45.9277H47.5933C46.3161 45.9277 45.2766 44.8831 45.2766 43.5995V43.499C45.2766 42.2154 46.3161 41.1708 47.5933 41.1708H49.9492C51.2264 41.1708 52.2659 42.2154 52.2659 43.499V43.5995C52.2659 44.8831 51.2264 45.9277 49.9492 45.9277ZM47.5933 41.6243C46.5651 41.6243 45.7279 42.4649 45.7279 43.499V43.5995C45.7279 44.6329 46.5643 45.4742 47.5933 45.4742H49.9492C50.9774 45.4742 51.8146 44.6336 51.8146 43.5995V43.499C51.8146 42.4657 50.9781 41.6243 49.9492 41.6243H47.5933ZM49.9461 44.5301H47.5903C47.0803 44.5301 46.6651 44.1128 46.6651 43.6003V43.4997C46.6651 42.9872 47.0803 42.57 47.5903 42.57H49.9461C50.4561 42.57 50.8713 42.9872 50.8713 43.4997V43.6003C50.8713 44.1128 50.4561 44.5301 49.9461 44.5301ZM47.5903 43.0228C47.3248 43.0228 47.1164 43.2322 47.1164 43.499V43.5995C47.1164 43.8671 47.3248 44.0758 47.5903 44.0758H49.9461C50.2079 44.0758 50.42 43.8618 50.42 43.5995V43.499C50.42 43.2359 50.2072 43.0228 49.9461 43.0228H47.5903Z" fill="#4BBEDB"/>
<path d="M13.479 43.499C13.479 42.3364 12.5365 41.3976 11.3879 41.3976H9.02685C7.87827 41.3976 6.93579 42.3364 6.93579 43.499V43.5996C6.93579 44.7538 7.87827 45.701 9.02685 45.701H11.3879C12.5365 45.701 13.479 44.7538 13.479 43.5996V43.499ZM12.0799 43.6003C12.0799 43.9866 11.7648 44.3033 11.3804 44.3033H9.01933C8.63497 44.3033 8.3198 43.9866 8.3198 43.6003V43.4998C8.3198 43.1135 8.63497 42.7968 9.01933 42.7968H11.3804C11.7648 42.7968 12.0799 43.1135 12.0799 43.4998V43.6003Z" fill="#4BBEDB"/>
<path d="M11.3887 45.9277H9.02765C7.75045 45.9277 6.71094 44.8831 6.71094 43.5995V43.499C6.71094 42.2154 7.75045 41.1708 9.02765 41.1708H11.3887C12.6659 41.1708 13.7055 42.2154 13.7055 43.499V43.5995C13.7055 44.8831 12.6659 45.9277 11.3887 45.9277ZM9.0269 41.6251C7.99867 41.6251 7.16149 42.4657 7.16149 43.4997V43.6003C7.16149 44.6336 7.99792 45.4749 9.0269 45.4749H11.388C12.4162 45.4749 13.2534 44.6344 13.2534 43.6003V43.4997C13.2534 42.4664 12.417 41.6251 11.388 41.6251H9.0269ZM11.3797 44.5301H9.01862C8.50865 44.5301 8.09344 44.1128 8.09344 43.6003V43.4997C8.09344 42.9872 8.50865 42.57 9.01862 42.57H11.3797C11.8897 42.57 12.3049 42.9872 12.3049 43.4997V43.6003C12.3049 44.1128 11.8897 44.5301 11.3797 44.5301ZM9.01862 43.0228C8.75687 43.0228 8.54475 43.2367 8.54475 43.499V43.5995C8.54475 43.8626 8.75762 44.0758 9.01862 44.0758H11.3797C11.6415 44.0758 11.8536 43.8618 11.8536 43.5995V43.499C11.8536 43.2359 11.6407 43.0228 11.3797 43.0228H9.01862Z" fill="#4BBEDB"/>
<path d="M42.3107 32.663C42.8824 32.663 43.4089 32.4415 43.8158 32.0326L45.43 30.3907C46.2499 29.5502 46.2499 28.1888 45.43 27.3512C44.6297 26.5416 43.2246 26.5416 42.419 27.3512L40.8048 29.0014C39.985 29.8336 39.985 31.2033 40.8048 32.0356C41.2118 32.4332 41.7413 32.663 42.31 32.663H42.3107ZM41.7977 29.9735L43.4119 28.3316C43.5541 28.1888 43.7323 28.1162 43.9249 28.1162C44.1174 28.1162 44.304 28.1948 44.4379 28.3316C44.7222 28.6257 44.7222 29.1049 44.4379 29.399L42.8237 31.0408C42.5446 31.3213 42.0685 31.3213 41.7947 31.0408C41.5051 30.7468 41.5051 30.2675 41.7977 29.9735Z" fill="#4BBEDB"/>
<path d="M42.3113 32.8896C41.6952 32.8896 41.1048 32.6439 40.6482 32.1979C39.7343 31.2704 39.7343 29.7661 40.6452 28.8416L42.2586 27.1922C42.6859 26.7629 43.2936 26.5172 43.927 26.5172H43.9315C44.5633 26.518 45.1681 26.7644 45.5908 27.1915C46.4956 28.1167 46.4956 29.6225 45.5915 30.55L43.9766 32.1926C43.5283 32.6431 42.9371 32.8903 42.3105 32.8903L42.3113 32.8896ZM43.9277 26.97C43.4132 26.97 42.922 27.1673 42.5798 27.5105L40.9671 29.1591C40.2292 29.9082 40.2292 31.126 40.9671 31.8751C41.3357 32.2357 41.8148 32.4353 42.312 32.4353C42.8258 32.4353 43.2906 32.2402 43.6577 31.8713L45.2711 30.2303C46.0037 29.4789 46.0037 28.2581 45.2711 27.509C44.9334 27.1673 44.4452 26.9708 43.9322 26.9692H43.9285L43.9277 26.97ZM42.3083 31.4775H42.303C42.0458 31.476 41.8081 31.3777 41.6343 31.1993C41.2575 30.8168 41.259 30.1947 41.6381 29.813L43.2515 28.1719C43.4358 27.9867 43.669 27.8884 43.9247 27.8884C44.1804 27.8884 44.4226 27.992 44.5987 28.1719C44.968 28.5544 44.968 29.175 44.5987 29.556L42.983 31.1993C42.807 31.3762 42.561 31.4768 42.306 31.4768L42.3083 31.4775ZM43.9254 28.342C43.7893 28.342 43.6705 28.3919 43.5719 28.4909L41.9577 30.1327C41.7532 30.3384 41.7524 30.674 41.9555 30.8803C42.0435 30.9711 42.1706 31.0225 42.3045 31.0232H42.3075C42.4437 31.0232 42.5738 30.9711 42.6648 30.8796L44.2782 29.2385C44.4768 29.0329 44.4768 28.6958 44.2767 28.4886C44.1857 28.3957 44.0578 28.342 43.9254 28.342Z" fill="#4BBEDB"/>
<path d="M16.6629 54.4371C16.0913 54.4371 15.5647 54.6586 15.1578 55.0759L13.5436 56.7177C12.7237 57.55 12.7237 58.9197 13.5436 59.752C13.9505 60.167 14.4778 60.3907 15.0487 60.3907C15.6196 60.3907 16.1469 60.1692 16.5538 59.752L18.168 58.1101C18.9879 57.2779 18.9879 55.9081 18.168 55.0706C17.7611 54.6586 17.2316 54.4371 16.6629 54.4371ZM17.1759 57.1184L15.5617 58.7685C15.4196 58.9114 15.2413 58.984 15.0487 58.984C14.8562 58.984 14.6696 58.9053 14.5357 58.7685C14.3853 58.6173 14.3214 58.4238 14.3214 58.2303C14.3214 58.0368 14.3936 57.844 14.5357 57.7012L16.1499 56.0593C16.2921 55.9165 16.4703 55.8439 16.6629 55.8439C16.8555 55.8439 17.042 55.9225 17.1759 56.0593C17.4602 56.3503 17.4602 56.8243 17.1759 57.1184Z" fill="#4BBEDB"/>
<path d="M15.0489 60.6173C14.4216 60.6173 13.8303 60.3664 13.3828 59.9113C12.4727 58.9868 12.4727 57.4826 13.3828 56.5581L14.997 54.9162C15.4408 54.4612 16.0327 54.2102 16.6631 54.2102C17.2911 54.2102 17.8823 54.4589 18.3284 54.9102C19.2378 55.84 19.2378 57.3465 18.3284 58.2695L16.7142 59.9113C16.2704 60.3664 15.6785 60.6173 15.0481 60.6173H15.0489ZM16.6631 54.6638C16.1478 54.6638 15.683 54.861 15.3189 55.2345L13.704 56.8771C12.9668 57.6254 12.9668 58.844 13.704 59.5923C14.071 59.9665 14.5359 60.1638 15.0489 60.1638C15.5619 60.1638 16.029 59.9665 16.393 59.5931L18.008 57.9505C18.7443 57.2029 18.7443 55.9821 18.008 55.2292C17.6477 54.8648 17.17 54.6638 16.6631 54.6638ZM15.0489 59.2106C14.7961 59.2106 14.5509 59.107 14.3749 58.9271C14.1952 58.7464 14.0959 58.4985 14.0959 58.2302C14.0959 57.9618 14.1982 57.7199 14.3764 57.54L15.9899 55.8989C16.1749 55.713 16.4073 55.6154 16.6631 55.6154C16.9188 55.6154 17.161 55.719 17.337 55.8989C17.7056 56.2769 17.7056 56.8937 17.337 57.2747H17.3363L15.7221 58.9256C15.537 59.1115 15.3046 59.2091 15.0481 59.2091L15.0489 59.2106ZM16.6631 56.0698C16.5269 56.0698 16.4081 56.1204 16.3095 56.2194L14.6961 57.8605C14.6021 57.955 14.5464 58.0933 14.5464 58.2309C14.5464 58.3352 14.572 58.4849 14.6954 58.6089C14.7886 58.7041 14.9165 58.7578 15.0489 58.7578C15.1813 58.7578 15.3039 58.7071 15.4024 58.6081L17.0143 56.9602C17.2129 56.7546 17.2129 56.422 17.0143 56.2187C16.9226 56.1249 16.7947 56.0713 16.6623 56.0713L16.6631 56.0698Z" fill="#4BBEDB"/>
<path d="M16.5487 27.3473C15.7484 26.5377 14.3433 26.5377 13.5378 27.3473C12.7179 28.1879 12.7179 29.5493 13.5378 30.3868L15.1519 32.0287C15.5589 32.4376 16.0861 32.6591 16.657 32.6591C17.228 32.6591 17.7552 32.4376 18.1622 32.0287C18.982 31.1964 18.982 29.8267 18.1622 28.9944L16.548 27.3473H16.5487ZM17.1761 31.0399C17.0339 31.1828 16.8556 31.2554 16.6631 31.2554C16.4705 31.2554 16.284 31.1768 16.1501 31.0399L14.5359 29.3981C14.2516 29.104 14.2516 28.6248 14.5359 28.3307C14.6781 28.1879 14.8563 28.1153 15.0489 28.1153C15.2414 28.1153 15.428 28.1939 15.5619 28.3307L17.1761 29.9726C17.4604 30.2666 17.4604 30.7459 17.1761 31.0399Z" fill="#4BBEDB"/>
<path d="M16.6571 32.8857C16.0306 32.8857 15.4394 32.6385 14.9926 32.1887L13.3776 30.5461C12.4728 29.6216 12.4728 28.1151 13.3776 27.1883C13.8056 26.7582 14.4126 26.5133 15.046 26.5133H15.0505C15.6823 26.5141 16.2871 26.7605 16.7098 27.1876L18.324 28.8355C19.2341 29.7592 19.2341 31.2635 18.324 32.188C17.8764 32.6385 17.2844 32.8857 16.6579 32.8857H16.6571ZM15.0452 26.9669C14.5307 26.9669 14.0395 27.1641 13.6973 27.5081C12.9654 28.258 12.9654 29.4795 13.6988 30.2286L15.313 31.8697C15.6793 32.2378 16.1441 32.4329 16.6579 32.4329C17.1716 32.4329 17.6365 32.2378 18.0035 31.869C18.7399 31.1214 18.7399 29.9036 18.0028 29.1545L16.3886 27.5073C16.0501 27.1649 15.562 26.9684 15.049 26.9676H15.0452V26.9669ZM16.6631 31.4819C16.4104 31.4819 16.1652 31.3784 15.9892 31.1985L14.3758 29.5574C14.0057 29.1749 14.0057 28.5543 14.3743 28.1725C14.5601 27.9858 14.7925 27.8883 15.049 27.8883C15.3055 27.8883 15.5477 27.9919 15.7229 28.1718L17.3364 29.8129C17.7064 30.1954 17.7064 30.816 17.3379 31.1977L17.3356 31.2C17.1521 31.3844 16.9196 31.4819 16.6631 31.4819ZM15.049 28.3419C14.9128 28.3419 14.794 28.3918 14.6954 28.4908C14.4976 28.6956 14.4976 29.0328 14.6977 29.2399L16.3104 30.8802C16.4021 30.9747 16.5308 31.0284 16.6631 31.0284C16.7955 31.0284 16.9174 30.9785 17.0152 30.8802C17.2145 30.6731 17.2137 30.3367 17.0137 30.1296L15.401 28.4893C15.3092 28.3948 15.1806 28.3411 15.0482 28.3411L15.049 28.3419Z" fill="#4BBEDB"/>
<path d="M43.8166 55.0678C43.0162 54.2582 41.6112 54.2582 40.8056 55.0678C39.9857 55.9083 39.9857 57.2758 40.8056 58.1073L42.4198 59.7491C42.8267 60.1641 43.354 60.3879 43.9249 60.3879C44.4958 60.3879 45.0231 60.1664 45.43 59.7491C45.8429 59.3341 46.0513 58.7801 46.0513 58.2275C46.0513 57.6749 45.8452 57.1291 45.43 56.7149L43.8158 55.0678H43.8166ZM44.4461 58.7687C44.1671 59.0408 43.6962 59.0408 43.4172 58.7687L41.803 57.1186C41.5104 56.8245 41.5104 56.3453 41.803 56.0512C41.9451 55.9083 42.1234 55.8358 42.316 55.8358C42.5085 55.8358 42.6951 55.9144 42.8289 56.0512L44.4431 57.6931C44.7305 57.9871 44.7305 58.4747 44.4461 58.7687Z" fill="#4BBEDB"/>
<path d="M43.925 60.6143C43.2977 60.6143 42.7057 60.3633 42.2589 59.9083L40.6447 58.2664C39.7376 57.345 39.7369 55.8384 40.6447 54.9087C41.0727 54.4786 41.6797 54.2336 42.3131 54.2336H42.3176C42.9494 54.2344 43.5542 54.4808 43.9769 54.9079L45.5911 56.5558C46.0334 56.9973 46.2778 57.5914 46.2778 58.2279C46.2778 58.8644 46.0273 59.4699 45.5903 59.9098C45.1473 60.3641 44.5561 60.6151 43.9257 60.6151L43.925 60.6143ZM42.3131 54.6864C41.7986 54.6864 41.3074 54.8837 40.9652 55.2277C40.231 55.9806 40.231 57.2014 40.9659 57.9474L42.5801 59.5893C42.9472 59.9635 43.412 60.1608 43.925 60.1608C44.438 60.1608 44.9051 59.9635 45.2691 59.59C45.6242 59.2333 45.8265 58.7374 45.8265 58.2271C45.8265 57.7169 45.6294 57.2324 45.2714 56.8756L43.6557 55.2269C43.3172 54.8845 42.8291 54.6879 42.3161 54.6872H42.3123L42.3131 54.6864ZM43.9318 59.197C43.6873 59.197 43.4421 59.1085 43.2601 58.9309L41.6421 57.277C41.4594 57.0933 41.3578 56.8468 41.3578 56.5845C41.3578 56.3222 41.4593 56.0758 41.6436 55.8906C41.8272 55.7062 42.0596 55.6086 42.3161 55.6086C42.5726 55.6086 42.814 55.7122 42.99 55.8921L44.6035 57.5332C44.978 57.9172 44.9796 58.5416 44.608 58.9264L44.6035 58.9309C44.4214 59.1085 44.177 59.197 43.9318 59.197ZM42.3168 56.0614C42.1807 56.0614 42.0618 56.1121 41.9633 56.2111C41.864 56.3109 41.8099 56.4432 41.8099 56.5845C41.8099 56.7259 41.864 56.8582 41.9633 56.958L43.579 58.6096C43.7648 58.7903 44.0965 58.791 44.2875 58.6081C44.4846 58.4018 44.4824 58.0563 44.283 57.8514L42.6696 56.2104C42.5771 56.1159 42.4492 56.0622 42.3168 56.0622V56.0614Z" fill="#4BBEDB"/>
<path d="M38.0932 41.3979H31.8569C31.7787 41.3057 31.7005 41.2271 31.6147 41.1454V32.6119C31.6147 31.4493 30.6722 30.5105 29.5237 30.5105H29.4515C28.3029 30.5105 27.3604 31.4493 27.3604 32.6119V41.1454C26.7022 41.7396 26.29 42.5885 26.29 43.5493C26.29 45.334 27.726 46.7906 29.4876 46.7906C30.4353 46.7906 31.2717 46.359 31.8569 45.7006H38.0932C39.2418 45.7006 40.1843 44.7534 40.1843 43.5991V43.4986C40.179 42.336 39.2448 41.3972 38.0932 41.3972V41.3979ZM28.7594 32.6119C28.7594 32.2257 29.0746 31.9089 29.459 31.9089H29.5312C29.9155 31.9089 30.2307 32.2257 30.2307 32.6119V40.4001C29.9968 40.3442 29.7516 40.2996 29.5034 40.2996C29.2551 40.2996 29.0099 40.3419 28.776 40.4001L28.773 32.6119H28.7587H28.7594ZM29.4868 45.3854C28.4887 45.3854 27.6801 44.5675 27.6801 43.55C27.6801 42.5325 28.4857 41.7063 29.4868 41.7063C30.488 41.7063 31.2935 42.5303 31.2935 43.55C31.2935 44.5697 30.4849 45.3854 29.4868 45.3854ZM38.7868 43.6007C38.7868 43.9869 38.4716 44.3037 38.0872 44.3037H32.5843C32.6399 44.0603 32.6843 43.8161 32.6843 43.55C32.6843 43.2839 32.6422 43.0398 32.5843 42.7964H38.0872C38.4716 42.7964 38.7868 43.1131 38.7868 43.4994V43.5999V43.6007Z" fill="#4BBEDB"/>
<path d="M29.4879 47.0177C27.5999 47.0177 26.0647 45.4621 26.0647 43.5496C26.0647 42.5918 26.4438 41.7067 27.135 41.0468V32.6123C27.135 31.3287 28.1746 30.2841 29.4518 30.2841H29.524C30.8012 30.2841 31.8407 31.3287 31.8407 32.6123V41.049C31.8836 41.0914 31.9227 41.1314 31.9595 41.1715H38.0943C39.3655 41.1715 40.405 42.2154 40.411 43.4982V43.6002C40.411 44.8838 39.3715 45.9285 38.0943 45.9285H31.9573C31.2969 46.6322 30.4236 47.0185 29.4886 47.0185L29.4879 47.0177ZM29.451 30.7376C28.4228 30.7376 27.5856 31.5782 27.5856 32.6123V41.2471L27.5104 41.3144C26.868 41.8941 26.5145 42.6878 26.5145 43.5496C26.5145 45.2118 27.8474 46.5642 29.4864 46.5642C30.3243 46.5642 31.1066 46.2044 31.688 45.5497L31.7549 45.4741H38.0921C39.1203 45.4741 39.9575 44.6336 39.9575 43.5995V43.4989C39.9522 42.4656 39.1158 41.6243 38.0921 41.6243H31.7512L31.6835 41.5442C31.6195 41.4686 31.5526 41.399 31.4586 41.3113L31.3871 41.2441V32.6115C31.3871 31.5782 30.5507 30.7368 29.5217 30.7368H29.4495L29.451 30.7376ZM29.4871 45.6117C28.3664 45.6117 27.4547 44.6865 27.4547 43.5496C27.4547 42.4127 28.3664 41.4791 29.4871 41.4791C30.6079 41.4791 31.5195 42.4082 31.5195 43.5496C31.5195 44.691 30.6079 45.6117 29.4871 45.6117ZM29.4871 41.9334C28.6153 41.9334 27.906 42.6584 27.906 43.5503C27.906 44.4423 28.6153 45.1589 29.4871 45.1589C30.3589 45.1589 31.0682 44.4378 31.0682 43.5503C31.0682 42.6629 30.3589 41.9334 29.4871 41.9334ZM38.0875 44.53H32.301L32.3642 44.2526C32.4131 44.0379 32.459 43.8043 32.459 43.5496C32.459 43.3387 32.4289 43.1165 32.365 42.8489L32.298 42.5692H38.0875C38.5975 42.5692 39.0127 42.9864 39.0127 43.4989V43.5995C39.0127 44.112 38.5975 44.5293 38.0875 44.5293V44.53ZM32.8614 44.0765H38.0875C38.3493 44.0765 38.5614 43.8625 38.5614 43.6002V43.4997C38.5614 43.2366 38.3485 43.0235 38.0875 43.0235H32.8621C32.8945 43.2109 32.9103 43.3825 32.9103 43.5503C32.9103 43.7393 32.89 43.9139 32.8614 44.0772V44.0765ZM28.5507 40.6907L28.5476 32.839H28.5334V32.6123C28.5334 32.0998 28.9486 31.6825 29.4585 31.6825H29.5307C30.0407 31.6825 30.4559 32.0998 30.4559 32.6123V40.6877L30.1784 40.6212C29.9046 40.5554 29.6962 40.5267 29.5029 40.5267C29.2991 40.5267 29.0855 40.5569 28.8297 40.6204L28.5491 40.6907H28.5507ZM29.5044 40.0724C29.6819 40.0724 29.8527 40.0928 30.0061 40.1208V32.6123C30.0061 32.3492 29.7933 32.136 29.5322 32.136H29.46C29.2381 32.136 29.0516 32.2903 28.9997 32.4974L29.0027 40.12C29.1802 40.0883 29.3442 40.0731 29.5044 40.0731V40.0724Z" fill="#4BBEDB"/>
<path d="M64.4867 46.2922C64.2882 46.2922 64.0903 46.2612 63.8993 46.2015C63.029 45.9293 62.4777 45.0986 62.5604 44.1824C62.5619 44.1665 62.5634 44.1499 62.5664 44.134L65.166 26.2257L60.8033 28.7905C60.6649 28.8721 60.5077 28.9145 60.3475 28.9145C59.4479 28.9145 58.6401 28.4481 58.1872 27.6672C57.7344 26.8871 57.7277 25.952 58.1692 25.1659L71.983 0.976652C72.4298 0.182943 73.3534 -0.182919 74.2252 0.0892096C75.0985 0.362094 75.6498 1.19284 75.5664 2.10977C75.5648 2.12715 75.5626 2.14454 75.5603 2.16193L72.9051 19.9138L77.1181 17.9628C77.2369 17.9076 77.3656 17.8796 77.4957 17.8796C78.393 17.8796 79.2001 18.3445 79.6544 19.1224C79.6544 19.1224 79.6552 19.1239 79.656 19.1246C80.108 19.904 80.1148 20.839 79.6748 21.6252C79.6733 21.6275 79.6718 21.6297 79.671 21.632L66.1438 45.3148C65.8016 45.9248 65.1803 46.2922 64.486 46.2922H64.4867ZM64.3581 44.3623C64.3566 44.4205 64.3799 44.4515 64.4394 44.4697C64.4567 44.475 64.4732 44.478 64.4875 44.478C64.5131 44.478 64.5462 44.4712 64.5763 44.4175L78.1042 20.7332C78.2276 20.511 78.2253 20.2577 78.0974 20.0378C77.9966 19.8669 77.8409 19.7528 77.6567 19.7112L73.1684 21.79C73.0496 21.8452 72.9209 21.8731 72.7908 21.8731C72.2989 21.8731 71.8453 21.6713 71.5136 21.3054C71.1834 20.9411 71.0262 20.4694 71.0713 19.9773C71.0728 19.9599 71.0751 19.9433 71.0773 19.9259L73.7694 1.92759C73.7701 1.8709 73.7461 1.83915 73.6882 1.82101C73.6235 1.8006 73.5836 1.81647 73.5505 1.87468L59.7375 26.0624C59.6164 26.2786 59.6179 26.5326 59.7465 26.7533C59.8398 26.9136 59.9812 27.0239 60.1489 27.0723L64.8335 24.3178C64.9719 24.2361 65.1291 24.1938 65.2893 24.1938C65.7812 24.1938 66.2348 24.3956 66.5658 24.7607C66.8952 25.1205 67.0532 25.593 67.0081 26.0881C67.0066 26.104 67.005 26.1206 67.002 26.1365L64.3566 44.3616L64.3581 44.3623Z" fill="#4BBEDB"/>
</svg>
